<svg height="510" width="507.06" xmlns="http://www.w3.org/2000/svg"><g fill="#fff" transform="translate(-344.34416 -59.878377)"><path d="m529.28639 144.50199s32.65268 76.43066 88.84083 62.51249c0 0-1.26948-10.1251 2.53128-22.01209 0 0 2.77748-2.78517-1.77728-6.58593 0 0-23.02768-25.55896-24.04327-27.32854 0 0-10.63289-10.379-24.04326-4.30855 0 0-16.44175 9.3711-41.5083-2.27738"/><path d="m613.31088 88.575423s-27.07465 40.992807 14.93375 85.040077c0 0 6.07814-12.41017 18.22672-9.625 0 0-3.03907-11.89469-12.41017-20.99651 0 0-6.32434-7.60152-6.07045-9.87889 0 0 9.10952 10.1174 18.98842 12.91027 0 0 12.65637 5.57034 18.72682 15.17996l9.35571-11.6331s14.17976-14.17976-13.15647-21.51969c0 0-35.43016-15.94164-48.59433-39.477117"/><path d="m734.7967 136.14647s-2.27738-8.84792-18.73451-10.36361c0 0-4.55476-1.26948-1.0079-6.83983 0 0 16.95724-28.605716 4.30086-53.903081 0 0 47.83264 15.433855 55.68036 75.668971 0 0 1.51569 5.81655-3.54686 6.57824 0 0-6.57824 1.77728-9.36341-9.11721 0 0-7.33993-35.17626-16.44944-39.731019 0 0 10.88679 25.812859 3.80076 35.437859 0 0-1.26949 4.80865-14.67986 2.26968"/><path d="m787.69189 177.40857 4.30086 11.89468s14.92606-5.06255 23.78937-3.03907c0 0-14.93375 1.77728-19.9963 8.60172l14.17206 11.39459s2.02348-14.93376 24.55106-17.46503c0 0-16.70334-17.21114-46.81705-11.38689"/><path d="m595.09185 252.06195s27.83633-21.51199 31.8833-60.98911c0 0 6.33203-30.37531 16.20324-21.77359l8.34782 7.84772s4.05466 3.80846-.5078 9.62501c0 0-4.80095 25.30505 1.77728 33.15278 0 0-7.08603 14.93375-12.91027 16.44944 0 0 21.01189-1.51569 28.35182 9.8712 0 0 6.32434 8.34783 8.59403 9.60962 0 0 15.44155 14.94145 8.86331 29.86751 0 0-5.82424 11.89468-25.55896-1.0079 0 0-31.1293-28.35182-65.04377-32.65268"/><path d="m653.81128 326.46913 13.15648-22.52758s5.82424-6.82444 8.60172 1.26949c0 0 7.09372 19.7501 9.1172 20.7503l.754-.2462.25359-1.52339-.754-.76169-.76169-1.26179s-2.78517-16.95723-2.02348-19.7424l-1.52338-5.06256.25359-2.27737s10.8791-5.06255 11.64079-16.44945c0 0 1.76958-4.55475 7.84772-.50779l2.02348.50779 8.60941 10.6329 1.7619 1.26948s14.94144 21.0042 6.07813 47.57105c0 0-5.81654 27.08234 1.77728 41.5083 0 0-31.38319-11.89469-30.3753-29.35972 0 0 3.80076-25.29736-6.07045-22.01209l-1.26948.50041-29.09812-2.27738"/><path d="m724.9178 298.879s32.39879 4.56245 42.77779-2.52358c0 0 5.06255-3.80076 11.13299 1.51569 0 0 17.96513 13.41807 18.21903 16.44944 0 0 3.29296-14.93375-8.85562-22.26599 0 0-3.03137-3.54686.76169-5.82424l17.21113-18.21903s11.133 55.67267 26.56685 59.47343c0 0-12.14088 13.15648-69.59852 1.00789 0 0-33.66058-5.31644-38.21534-29.61361"/><path d="m800.59447 366.70795-.25359 20.75799s46.30926-20.2502 46.06306-26.32064c0 0-24.04327-6.58594-31.6371 0l-.25359.76169.76939.75399.75399.5078 15.94165-.25359 1.76959-.25359h.76169l.76169.76169.50041.76169.25359 1.00789-2.02349 1.2618-1.00789.76169s-23.28927 3.03906-26.32834-3.79307l-6.07044 3.28527"/><path d="m700.12054 422.13441s-10.8791-29.09812-16.19555-30.11371c0 0-2.02348-6.58593-4.30086-4.30086 0 0-7.59382-5.06255-2.79286 3.54686 0 0 6.07814 10.87141-4.54707 19.98861 0 0-29.8675 49.34833 13.15648 66.55946l1.00789-.25359.76939-.76169.76169-.49979.2462-.76938s-22.27368-12.64869-14.16437-33.14509c0 0-1.77728 22.51989 24.78957 27.59013 0 0 14.17976-6.33973 25.31276-7.09373 0 0 9.10951-12.90258 6.07044-21.51199 0 0 .76169-4.30086-5.31645-.754l-16.18785 6.57824 1.26179 3.54687v1.00789l-.50779.754s-7.33993-3.53148-5.82424-12.64869c0 0 17.46503-10.1251 22.78147-7.84772l30.87541-16.45714 1.26179-1.50799.50779-1.26948s-3.03137-13.15648-1.00789-12.90258l-12.40248.2462-.50779.76169-45.04747 21.2581"/><path d="m559.90789 330.10063s4.95484-24.56645 10.18666-28.19025c.11571-.0769.23081-.14649.33852-.20004 5.36261-2.78517 39.10782-2.17736 39.10782-2.17736s-13.89508 12.5025-24.02018 15.27998c0 0-20.25021 7.73231-25.61282 15.28767"/><path d="m585.12832 361.65309.19204 20.84263s-9.52498-7.54766-.39208-21.6351"/><path d="m639.9085 296.74781 12.5025 4.57014s-17.46503 20.6349-34.33763 28.3749l-9.1326-.59211-7.74001 8.53247s-29.77518 16.67256-63.12031 15.28767c0 0-55.78038 2.77748-65.30536 8.14009l-1.58493-8.73251-3.18525-5.35492s27.39778-9.34033 69.28308-9.14029c0 0 59.93506 1.79267 102.62051-41.08514"/><path d="m517.63021 261.40997-17.26499 23.82784s23.82015 31.75251 24.21253 36.71504l10.92526-21.6351s-6.55515-3.16986-11.51768-1.98501l-4.57015-2.57744-.19204-9.92506-.79246-1.39259-.80016-23.02768"/><path d="m479.71494 312.03548s12.91027 16.66487 13.30266 20.24251c0 0-6.35512 1.58493-7.34762.40008-.99251-1.19255-3.76229-17.47273-5.95504-20.64259"/><path d="m461.2574 289.20014s26.99771 14.29517 37.91528 38.5154c0 0 14.80295-4.93945-9.1326-33.12201-.0695-.0769-.1311-.15388-.20004-.23082-24.21253-28.38259-72.45295-51.41027-110.96064-50.81015 0 0 49.42526 31.16007 56.77288 71.85282 0 0 1.98502 13.29497 20.44255 15.48002 0 0 18.46523-3.16986 22.03518-.79247 0 0-1.78498-21.23501-16.87261-40.89279"/><path d="m352.35871 402.19196s-15.42616 57.8885 23.5047 58.50401c0 0-8.81715-5.8781-7.59383-13.10262l-3.66996-.2382-.49241-24.12021s5.26259-7.58613-10.03277-8.19395l-1.71573-12.84872"/><path d="m465.45824 439.76101 6.85522-14.31825.73861-.7386.97712-.36131 3.54686.49241 1.59263.48502.4924.97712-.1231 18.98071-3.43145-.25358-10.8868-5.378"/><path d="m470.10533 491.29439s2.57743.1231.3773-9.90967c0 0-3.06984-6.97832 6.48591-10.64829 0 0 2.43895-.86171 1.58494-5.02408 0 0 0-3.90847.85401-4.52398 0 0 2.20814-8.44784-2.56974-7.84003 0 0-15.65698 13.82584-6.73212 37.94605"/><path d="m474.7601 509.6596s3.79307 11.8716 9.42496 18.84992c0 0 8.93256 11.99471 10.27898 14.81066 0 0 .25359-6.84753-3.66996-15.05686 0 0-2.69285-7.71693-.49241-12.24091z"/><path d="m532.71015 422.64221 13.41037-7.47073 1.51569 2.91597-.1231 9.74041s-7.59383-.8848-14.80296-5.18565"/><path d="m534.47973 436.82196s9.10952 1.76189 15.31076 2.77748c0 0 4.17775-.25359 5.31644 2.02348 0 0 1.13869 1.51569 5.31645 1.0079l4.55476-.37669s17.83433 2.03117 22.01978 1.39258c0 0 2.52359 1.39259 5.82425 0 0 0 14.28747 0 15.17995-.2542 0 0 3.92386-.1231 4.67786 2.90827 0 0 4.93176 6.20124 11.26379 9.7481 0 0 5.57035 2.91597.25359 4.43166 0 0-9.36341 2.27738-25.05885.754 0 0-.754 1.39258-30.35992-.6309 0 0-32.39878-4.17776-34.29916-8.22472v-15.55696"/><path d="m560.29259 467.68967 33.41437 1.90038s13.65657.38469 23.65088 17.84203c0 0 .25359-7.08603-7.70923-17.71893 0 0 11.25609-.25359 12.02548-1.26179 0 0 4.67016-1.13869 10.8791 23.53548 0 0 6.70133 32.01409-24.30486 54.54167 0 0 14.80296-23.54317-11.3869-35.81485-26.18985-12.27169-32.76808-21.64279-36.56884-43.02399"/><path d="m677.67759 243.6295s14.84912-14.67986 9.44804-25.98212c0 0-3.53917-7.93236-1.50799-24.6357 0 0-.50779-5.40108-2.36971-7.59382 0 0 0-6.40897-4.71632-10.79447 0 0-1.01559-8.44015-3.3776-9.27877 0 0 .33853-9.44805 1.85422-11.98702 0 0-11.97932 12.32554-11.47922 26.49761 0 0-18.71913 10.96373-5.05486 39.98491 0 0 3.03907 11.81006 7.58613 14.84913 0 0 3.54687 4.04696 3.71613 5.40108 0 0 3.8777 4.21622 5.90118 3.53917"/><path d="m680.0396 158.25089 2.86981 7.93235s2.20044 11.97932 4.04696 12.99491c0 0 2.53897 2.8698 4.56245-1.85422 0 0 17.3727-23.78937 20.08094-24.29716l14.67216-11.97932s2.8698-1.85422-2.70054-3.71613c0 0-8.60941-.5004-11.30226-2.35431 0 0-6.91677 0-9.11721 1.85421 0 0-15.34922.16188-19.22692 10.80216 0 0-5.22412 7.07834-3.88539 10.61751"/><path d="m691.39572 209.54576s-5.70114-21.88899 14.41826-38.33074c0 0 9.11721-9.625 8.85562-10.64059 0 0 11.14069-18.21903 25.43585-15.05686 0 0 12.65638-2.02348 20.49641 7.21683 0 0 5.70114 3.03907 5.70114 4.04697 0 0 2.40048 2.65437 3.54686 3.16217l4.04697 7.59382s2.01578 7.08603 4.04696 8.60172l.63089 1.51569s1.13869 3.16986 2.40818 4.05466l4.55475 14.42596s7.33993 25.30505-2.27737 28.72882l-32.39879 10.2482s2.03118-8.23242 18.47292-21.135c0 0 7.47842-5.06255 5.07025-16.19554 0 0-1.39259-2.66207-2.91597.88479 0 0-3.92386 15.43386-15.31075 17.08034 0 0-4.93945 1.52338-3.03138-4.43166 0 0 7.71693-12.89488-.63859-19.86551 0 0-4.67785-9.36341-14.92606-6.83213l-5.94734-1.51569s1.39259-3.80076 0-4.68555c0 0 6.44744-14.80296 23.91247-6.20124 0 0 4.43166 2.90827 6.32434 6.33203 0 0 5.31645 3.53917 1.90038-3.29296 0 0-.25358-9.49421-18.60371-11.89469 0 0-17.08034 1.13869-21.889 17.59583l-10.37899 6.32434s-6.95524 3.03137-11.0099 8.47092c0 0-7.97082 6.58594-10.4944 13.79507"/><path d="m733.40412 188.67236s-6.57824.5004-3.93156 8.09392c0 0 2.53897 8.47862 6.20124 10.1251l.76169.37669.76169.76169 2.03118 1.3849s6.32434 5.57034 9.24031-.4998c0 0 4.54706-8.21702.75399-14.04896 0 0-1.13869-6.57824-12.02548-6.70903 0 0-2.14658 1.64648-3.79306.51579"/><path d="m682.7863 251.93885s-.63089-5.44724 1.51569-5.82424c0 0 2.27738-1.76959 2.02348-4.30086 0 0 2.40048-5.30876 6.70904-8.47862 0 0 2.02348-5.94734-.1231-9.74041 0 0-2.66208-5.43955 1.26179-8.73251l2.78517-5.44725 2.65437-1.64648s3.53917-5.93965 4.04697-5.80885c0 0 8.35551-4.68555 9.24031-7.72462 0 0-1.76959 9.48651 1.52338 11.51768 0 0 3.41607 3.28528 3.53917-5.31644 0 0 1.64648-9.87121 5.19334-11.26379 0 0-2.40817 20.1271 16.44944 26.82844l1.2618-.13111h1.13868l3.54687 1.77728-.25359 2.53128s3.40837 23.15847-16.58024 18.59602l-.63089-.37669h-9.49421s-3.92386 1.52338-.1231 3.54686h.50779l.88479.25359 1.64649 1.51569s1.51569 1.13869 4.17006.754l1.01559.1311 4.30086 1.38489s3.29297 1.90808.38469 5.70114c0 0-.88479 1.51569-.1311 2.65438 0 0-.1231 7.20913-7.71693 7.97852 0 0-5.43955 3.03137-9.74041 1.89268 0 0-19.74241 5.19335-19.6193 6.58594 0 0-2.53128-.7617-3.41607-6.33204 0 0-5.44724-11.89469-7.97083-12.52558"/><path d="m707.32967 274.08174s9.24031 4.17776 13.54117 14.81065c0 0 2.79287 4.30086 6.07814 1.00789 0 0 9.61731-.25358 11.64079-2.78517 0 0 22.39678-1.77728 20.75799-32.64499 0 0-1.64648-3.92386 3.53917-3.79306 0 0 39.86182 2.52358 47.95574-5.57035 0 0 8.60942-4.54706 7.59383-10.5021l.25359-1.76958v-1.26948s1.39258-5.05486-4.43166-8.10162c0 0-6.07044-3.80076-10.24051-9.36341 0 0-2.66207-3.03138-6.46283-4.55476l-.88479-1.77728-4.04696-5.68575.3773 16.44944s1.90038 8.98641-5.81654 10.5021l-.76169.37669s-18.85762 9.61731-25.30506 9.24031c0 0-15.56465 6.07044-25.44355 4.04696 0 0 7.72462 10.756 1.01559 19.23462 0 0-2.78517 6.33203-8.34783 6.83213 0 0-5.56265 1.90038-7.59382 1.01559 0 0-14.04896 1.63879-13.41807 4.30086"/><path d="m767.31859 255.99351s21.75819 3.79306 37.32284-1.40028c0 0-2.02348 4.93945-5.68575 7.47072 0 0-8.74021 6.07044-8.86331 9.10951 0 0-8.47862 11.77159-16.06475 12.27169 0 0-12.78717 7.59382-16.20324 7.59382l-1.90038 1.51569s-9.10951 1.90038-12.91027.76169c0 0 15.56465-9.35571 18.47292-15.56465l.5158-.88479v-.754l5.06255-14.43365z"/><path d="m394.39788 66.555637 41.5083-.753997 5.30876.500408 23.28927-.246203 3.79306.500407h10.1251l2.27738-.753997 6.07045-.515795 1.26948 1.015588h7.33993l1.26948 1.523381-2.28507 2.023482v40.238809l.76169 2.27738.25359 4.55476s2.26969 7.33223-6.33203 6.83213c-8.60172-.50779-6.32434 1.26949-6.32434 1.26949l-.3847 40.36191s1.01559.89249 3.42376-.88479l32.14489-20.8811h1.0079l.75399.25359.26159.5078v.63089.76169l.13111.754v.89248l.2462 1.2618.2462.63089s24.81266 61.49691 76.06136 67.69815l1.508.50779 1.01558.76169 1.64649 1.51569 3.42376 3.16987s1.63879 1.64648-.5078 5.05485l-3.66996 4.68555-13.79507 14.55676v8.21703s3.03907 7.33993 12.64869 5.69344c0 0 19.10382 5.69345 29.7444 12.78718l2.27738 1.40028 1.26179 1.37719.5078.89249.1231.754v.76169s.63859 5.69344 1.39258 5.82424l-.1311 4.42396s1.13869 3.80076-6.95524 3.80076l-8.47092-.25359-1.52338-.50779-1.64648-.63859-1.26179-.6309-.76939-.2462-54.27239 2.02348-1.90807.37669-13.66427-.88479s-13.15648-4.17776-13.67197-3.16217c0 0-3.53147-6.07045-1.63878-14.54906 0 0-1.39259-27.45934 0-36.44575 0 0-1.0079-2.65438 4.30086-2.28507l7.08603.26159s5.94734.1231 5.82424-1.64649c0 0 .1231-1.76958-2.90827-4.05465 0 0-35.81486-33.02199-36.19186-35.43016l-.50779-.88479-.1311-.8848-.37669-.88479-.37731-.76169-.63859-.754-.37669-.50779-1.01559-.63859-.6232-.25359-.76169-.1231s-8.60941-1.00789-12.02548 3.79307l-1.39259.89248-8.85561 6.20124s-3.80076 4.04696-4.04697 5.30876l-.1311.89248.37669.88479.5078.76169.13048.50041.13111.754v.63859s-.8848 13.16417-.5078 15.17996c0 0-1.90038 8.7402 6.82444 9.625l8.86331 1.00789s4.42397-.63089 3.16218 6.45514l2.66207 17.46503s-.13111 3.28527 1.51568 4.80865c0 0 1.90038 4.42396-2.14658 8.47862l-6.96293 7.59382s-17.84972-22.65068-42.13919-28.47492l-.76169-.38469-.76169-.50041s-25.43586-10.25589-35.17627-12.77948c0 0-5.06255 0-7.84772-2.15427l-.25359-.8848.38469-.76169.5078-.1231.76169-.1311s8.60172 2.03117 8.09392-6.45514v-1.00789-1.77728l.37731-1.63879.38469-1.39258.25359-.8848.11572-.76169.13849-1.51569s-1.26949-3.92386 1.50799-11.00989v-1.51569l.26159-2.53127s-.1311-14.81065-1.39259-15.94165v-.5158-1.13868l-.63089-11.64079s-.25359-12.27169.76169-18.21903l-.1311-1.01559v-1.00789l-.25359-2.02348-.26159-.88479-.36931-2.02349-.25359-1.14638-.25359-1.38489s-1.52338-9.8789.63859-11.89469l.2382-.76169v-.63089s.13849-3.54687-1.0002-4.55476v-2.90827l.12311-.76939s1.26179-2.27738-7.46303-2.40048l-17.21114-.63859-.37669-.8771-.38469-.88479.13049-7.47072s-.76169-7.20914-2.91597-9.61731c0 0-2.02348-5.824239 2.66207-12.271682 0 0 2.26968-3.669965 1.13869-8.986412l.1311-5.824241s.37669-9.486512 5.93965-9.994306"/><path d="m523.893 71.956717-.0849 3.793066v1.438749l-.76169 17.1265s.16927 2.362009 1.60801 6.324338l.0849 2.27738v.76169s-.50779 11.38689.16188 12.90258l-.0849.67706.0849.84632v.41547s-1.51568 4.13929 4.47013 3.96233l7.17836.0923s7.67076-.0923 7.67076 2.18505c0 0 1.34642 1.94654-2.61591 2.95444l-7.75539 4.90098s-2.36201 1.76958 1.00789 3.3699l15.01839 6.32434s5.98581 1.77728 11.30226-2.26968c0 0 9.36341-3.6315 18.22672-3.55456 0 0 3.53917-.66936 5.57034-3.03138 0 0 6.99371-5.56265 9.18645-6.91676 0 0 2.86981-2.28507 1.60802-6.74751 0 0-.67706-26.997699 8.26319-35.006993 0 0 3.1237-4.724021 7.76309-4.647082 0 0 5.23181-.83863 8.77098 2.954436 0 0 2.53128 1.60032 2.44664-3.716127l-.25359-8.26319s.84633-4.131596-7.92466-4.046963l-7.84772.08494-.0769.507794h-3.97002v-.592119l-24.88959-.592118-48.42507-.169265s-5.81655-.753997-5.73191 5.654977"/><path d="m389.54307 267.32654s-2.90058 7.99391-.27698 12.1332c0 0 1.50799 4.27008-.42347 5.2395l-.1311 1.92347.1311 2.60821s-2.33893 4.97022 2.34662 5.23951c0 0 12.26399 2.7544 20.1271-.1311 0 0 2.46973-1.80036-.83093-4.54707 0 0-16.54177-22.18905-20.94265-22.46603"/><path d="m57.03125 273.9375c-3.686195-.01623-7.09375 1.75-7.09375 1.75-.8771 1.14669-14.1875 1.53125-14.1875 1.53125-7.59383-1.52338-7.59375 1.40625-7.59375 1.40625l-2 7.59375-.15625 14.15625c-2.27738 11.51769.53125 29.09375.53125 29.09375.76169 1.90807 5.3125 2.15625 5.3125 2.15625 7.07833 1.76958 5.8125 6.59375 5.8125 6.59375-.63089 4.17776 0 36.9375 0 36.9375h.375l-.125 2.90625.375.125v5.59375h-.5v3.65625l-.75.625-.125 4.4375c4.42396 5.18565 2.90625 10 2.90625 10-3.41607 5.06256-2.40625 7.09375-2.40625 7.09375l.125 5.9375-.625 14.8125v5.5625c1.51568 3.66996-.53125 4.28125-.53125 4.28125-.76169 1.14639-7.3125 2.8125-7.3125 2.8125-4.43165 1.52339-3.6875 3.90625-3.6875 3.90625l-.5 12.90625-.125 1.15625-.125 1.25v1.15625c1.13869 5.43955-.53125 21.875-.53125 21.875l-.09375 5.3125c.377 10.76369 4.15625 9.625 4.15625 9.625h11.78125c15.31075-2.40818 21.5-.625 21.5-.625 17.08803 1.51569 16.0625-2.65625 16.0625-2.65625l-.25-12.40625.125-.625.28125-1.15625.25-1.625v-.65625-1.875l.125-2.15625c.1308-4.30856 1.375-10.375 1.375-10.375l-.25-16.96875c.13079-8.47862-5.1875-6.84375-5.1875-6.84375-6.58624.88479-6.84375-2.53125-6.84375-2.53125.38469-3.15448-1.875-20.34375-1.875-20.34375l.125-9.625v-.5c1.64648-3.16217 1-9.5 1-9.5.5001-5.81655 7.09375-5.3125 7.09375-5.3125 23.02768 1.13099 18.09375 31.375 18.09375 31.375-1.76959 11.76389 2 42.53125 2 42.53125-1.51568 2.77748-.21875 8.34375-.21875 8.34375l3.40625 11.25c3.29296 10.49441 16.0625 13.9375 16.0625 13.9375 17.45734 2.78517 20.75-9.625 20.75-9.625l3.28125-6.0625c4.30855-6.83214.78125-10.90625.78125-10.90625-5.31645-6.32434-10.875-18.59375-10.875-18.59375-1.76928-2.64668-1.28125-10.125-1.28125-10.125l.125-.75-.875-.78125-3.03125-2.25c-.2539-2.27738-3.6875-7.46875-3.6875-7.46875l-1-.90625c-2.53897-4.43166-.75-29.96875-.75-29.96875.63089-11.00219-10.25-15.71875-10.25-15.71875l-7.21875-2.15625-.5-.34375.09375-.40625 1.03125-.625 1.25-.625 1.40625-.5 1.65625-.90625c14.54907-2.53128 19.96875-27.3125 19.96875-27.3125-.24621-1.00789.90625-9.875.90625-9.875l.125-1.125c2.14658-8.98642-3.8125-43.8125-3.8125-43.8125-3.03137-20.8811-24.15625-23.78125-24.15625-23.78125l-1.15625-.125h-2.40625l-1 .125c-2.65437-1.52338-8.96875-1.125-8.96875-1.125-7.20913 1.39258-22.53125-1.40625-22.53125-1.40625-1.17139-.53665-2.427518-.74459-3.65625-.75zm16.09375 57.375c.324889-.02725.683154-.01832 1.0625 0 .86707.04187 1.87476.20041 3.0625.53125l10.28125 2.5625s3.51708 1.86186 4.625 5.0625l.6875 1.5625 4.40625 8.625s4.53522 13.59248-3.3125 17.5625l-.78125.90625-.78125.53125s-9.03851 11.04272-23.1875 4.1875l-.125-.875-.09375-.65625-.21875-5.75-1.34375-7.625 1.875-21s-1.029587-5.2163 3.84375-5.625z" transform="translate(344.34416 59.878377)"/><path d="m474.36772 501.43488-.58474 1.09253-.42347.50779s9.44805 1.93885 10.71753 3.8777c0 0 .33853-7.67077-.17726-9.78657l.17726-8.0093s-.006-5.23181-.42347-5.65497l-.25359-2.94675s-1.68495-4.56245-3.96233 1.26179l-.0923.67706.16926.84632s.84632 9.19415-.66936 11.21763c0 0-4.39319 5.64728-4.47782 6.91677"/><path d="m496.64909 394.12881s1.85422-23.95863 3.53917-25.65128c0 0-2.36201-4.71633 13.32574-5.72422 0 0 40.66198-1.18485 43.87031-2.53897l.83863.50779.16927.84633s4.22392 8.94025 8.44014 12.65637c0 0 13.21803 13.69505 13.81046 17.41118.0246.10771.0308.20742.0246.30036-.16927 3.20834.33853.66937.33853.66937l.67706 1.35412s3.87769 9.10951 2.19274 16.36481l.33114 17.04186.16927 1.85422s1.69265 7.93236-6.7475 5.56265c0 0-15.17996-1.17716-15.68775-.83863 0 0-6.23971-.16926-6.23971-8.43245l.16187-10.1251s-2.52358-9.95584-1.00789-11.64079v-1.35412-.84632s-2.19274-10.28667-14.84912-10.45594c0 0-9.27878 3.53917-9.95584 12.14858l-.50779 8.77868s2.20044 2.86211-9.60961 8.43246l-.16927.66936-.17727 1.18485 7.09373 6.23971.83863.67706.16926.67706.16927 1.17716-.33853.85401-.50041.4998-.50779.84632.16926 23.78168s2.69285 2.03117 2.53128 5.90887v2.36201l.16188.66937.16926 9.27877s-.83863 5.07025.84632 6.2551l.33853 1.33873v1.18485l.16927 1.35412s.50779 10.96373 4.55475 13.32574c0 0 7.2553 8.94025 13.66427-2.02348 0 0 4.05466-7.08603 4.55476-15.52618l1.18485 1.18485.84633 1.18485s8.60172 20.24251 24.628 29.85982c0 0 3.37759 1.85421.67706 8.77868 0 0-1.34643 8.09392-.83863 8.76329 0 0-4.05466 31.55246-34.42996 33.92216h-9.61731s-20.40408.16188-30.53687-18.73451c0 0-8.77099-21.92746-8.60172-40.32345l-.66937-51.79497.16927-59.55806"/><path d="m621.4048 331.91638s26.32834-3.29297 32.02179 15.81085l.50779-.1231.37669-.38469.3847-12.14089v-.63859l.25358-.5078 6.32435-.2462s2.02348.1231 2.14658 2.27738l14.55675.76169s3.92387-.37669 3.03907 7.84003l-.1311 1.52338v8.09393s-1.13869 8.73251 1.52338 15.17995c0 0 .1231 9.5019.37731 9.8789l-.5078.754-.25358.37669-.8848.51579-1.13869-.1311s-10.1251-1.89269-10.37899 6.32434c0 0-.76169 4.93945 1.77727 6.70904l.5078.63089v1.00789 1.14639l-3.66997 10.25589s-1.01558 6.70134-8.47861 2.64669c0 0-4.55476-1.0079-5.31645-.24621 0 0-1.39259-1.13869-2.15428-8.22472 0 0-1.76958-12.65637-14.04127-9.74041 0 0-11.14069 4.29317-6.83213 15.30306 0 0 1.26179 4.17776.6232 4.80866 0 0 1.40028 4.05465 9.49421 9.74041l1.39258 1.01558 1.65418 1.39259.3693.76169 11.77159 7.84003 1.39258 1.39259.8848 1.65417-1.51569.8771s-5.95504 26.95924 13.28727 39.99261l.37731.25359s8.47861 7.08603 14.04126 6.45514l.5078.1151.50779.1311.37731.38469.50779.5078.50041.75399.1311.76169s-.3773 33.28358-4.30086 49.97923c0 0-7.97082 33.02198-32.14488 26.07444l-5.43186-.38469s-6.70903-1.26949-9.24031-6.70134c0 0-2.66207-3.93156-4.04696-4.18546l-.89249-1.64648-.1231-.8771-.76169-.76169-.37669 4.42396-.25359.5158v.754l-.1231 2.66207-.38469.49979s1.26948 5.82424-7.59383 3.54686c0 0-11.00989-.38469-12.90258-.88479 0 0-6.32434.2462-6.96293 1.26179-.63089 1.00789-.37731 0-.37731 0l-.25358-1.26179v-1.01559l-.13111-6.45513s2.53897 6.70903 13.04107 2.40817l1.00789-.6309.6309-.38469s20.3733-14.17206 23.03537-32.52188c0 0 2.77748-12.40248 2.14659-15.55696v-1.01559l.1231-.50779.38469-.5078.37669-.50779.5078-.37669.63089-.26159.6309-.2462.50779-.12311.63859-.1231 1.00789-.13849s13.97203-5.47801 6.86291-27.35931c-.0431-.16188-.10771-.31514-.15387-.47702l-2.40818-3.16217-4.42396-5.82424s-6.57824-5.81655-7.59382-6.07045c0 0-6.70904-6.20124-7.08604-8.59402 0 0-5.31644-6.97063-9.7481-8.48631l-1.38489-.6309s-10.2482-7.33993-11.14069-10.002l-8.47092-18.08823s-2.53897-14.55676-1.26949-22.65068l.1231-1.26949v-2.03117-10.49441-1.64648l.25359-1.64648v-1.131l7.33993-27.21313s3.42376-9.99431 14.41827-11.76389"/><path d="m587.62882 357.85233 2.64668-3.16217s6.45514 1.63879 5.07794 4.54706l-.51579.63859-.3767.76169-1.00789 1.26949-.50779.5004s-3.29297 3.92387-4.43935 9.87121l-.754-7.58613-.1231-6.83983"/><path d="m700.62833 382.48802s-1.01559 6.91677 2.52358 7.2553l5.23951-.33853s4.03927-2.02348.16188-4.04696l-4.71633-3.71613s-1.85421-1.85422-3.20833.84632"/><path d="m729.14172 334.06296s-7.93235 28.69035-.50779 40.32344c0 0 .50779 8.27089 0 8.43246 0 0-1.50799 6.07814-6.07044 6.07814h-6.07045s-3.3776-.83863-2.8775 7.76309l.67706 7.93235 26.99771-11.64848s1.85421-3.53917 6.23971-3.70843h14.67985s8.94025-.84633 5.57035 11.30226l-.16927 2.03117s.83863 15.01069 1.68496 17.54197l1.18485 2.70054.67706.84632 18.04976-.33853s3.3699.5078 3.03907-6.57823l.33053-1.19255.50779-2.18505.50779-2.86981-.50779-17.21113s-3.88539-30.02908.50779-33.23741l.16927-15.68776s.83863-3.20833-6.07045-4.04696l-7.42456-.16926s-6.41667-.84633-12.65637-2.70824l-13.84123-3.20833s-25.64359-4.03927-24.628-.16188"/><path d="m743.14452 433.43667s-6.91676 3.20833-7.08603 4.55476l-.50779 10.63289s.17726 18.05746-11.81006 20.08094l-2.02348.49979s-6.2474-.83863-5.73961 6.7475c0 0 4.17007 24.55876-2.97751 26.55916-.17727.0492-.36931.0849-.56196.10771h-.67706l-.66937-.34591-.33852-.50041-.5078-.33853-.66936-.16926s-5.57804-.17665-6.07814 1.00789l.16188 6.58593-1.34643 18.72682s-4.03926 15.68775-.33052 22.94305l.33052 3.03907 1.01559 4.89329 8.77099.33853 18.55755.84632s10.46363 3.03137 32.72962-1.18485h28.34413s5.06255 1.34642 3.54686-6.24741c0 0-1.85421-16.86491-.50779-18.21902v-1.51569l-.33053-20.07324s-.67706-34.2607 1.16947-35.77639c0 0 2.3697-8.60172-7.7554-7.75539l-14.0028-1.35412s-4.72402-2.02348-4.55476 6.23971l.5078 16.19554.33853 5.06255s2.19274 9.28648-6.07814 7.60152l-1.0079.33115-15.18765-.16927s-4.38549 1.51569-3.8777-4.55475c0 0 0-22.27369-1.01558-23.28158 0 0-.33853-18.05746 1.01558-18.73452 0 0 7.58614-1.85421 11.64079-.5004l10.96373-.33053s8.27089.66936 4.56245-10.46363l-.17726-1.18485v-1.18486l.34653-1.51568.33853-1.34643s4.54706-8.27088-7.09373-6.2474c0 0-19.06535 1.68495-21.42736 0"/><path d="m432.74401 106.41745s-2.78517 2.90827-.38469 5.31645c0 0 2.65438 2.65437 3.92386 1.51569l.6309-.6309.37669-.50779v-.6309l-.12311-.50779-.50779-.5078s-1.13869-1.51568-.63089-1.76958v-.50779l-.3767-.6309s-1.51568-.76169-1.01558-1.64648l-.24621-.5078-.39207-.37669h-.62321l-.38469.5078-.2462.88479"/><path d="m470.69775 66.547943s2.03118 1.646483.89249 2.785172l-.26159 1.015588.1311.753997.50779.892486s.6309 2.146583 1.52339 2.146583c0 0 1.26179 0 1.13099-1.646483l-.1231-2.785172-.25359-.500408-.2462-.638589-.13049-.507794v-.500408l.37669-.507794.76169-.507794h-4.30855"/><path d="m478.16848 66.594106.76169-.253589 1.00789-.376691s7.33993-.384692 8.86331.761691l-.38469.377306-.1231.638589v.623202l.1231.892486v.500408s.1231 3.416067-.754 3.923861v1.015588l.50041 1.90038-.1231.377306.3773.630895-.1231 1.392586-.2542.376691s-.37669 4.808653-2.53128.892486v-.51518l-.1231-.753997-.25359-.507794-.1311-1.138689-.1311-.499792.1311-.638589.25359-.630896.25359-.638589.25359-.630895.88479-.123102.1231-.630895-.37731-.123102-.50779-.26159s.37669-5.431855-3.92386-5.054857c0 0 .50779 3.162171-.6309 3.162171l-.3773.246203v.507794l.50779.384692.50041.123101.13049.384693v.753997l-.13049.630895-.50041.253589-.50779.507794-.5078.254205h-.50779l-.38469-.507794v-.884793l.1311-.499792v-.638589l.25359-.630895.37669-.131103.1311-.507794-.76169-.123102s-1.89268-1.015587-.63089-2.523581c1.26179-1.523382 0-.384693 0-.384693s.25359-1.269484-.88479-1.900379"/><path d="m481.46144 76.996186c0 .384692-.31575.692446-.69244.692446-.3927 0-.70784-.307754-.70784-.692446 0-.384693.31514-.70014.70784-.70014.37669 0 .69244.315139.69244.70014"/><path d="m444.6387 99.139071c0 .38469-.31514.70014-.70014.70014-.37731 0-.69245-.31514-.69245-.70014 0-.38469.31514-.70014.69245-.70014.38469 0 .70014.31514.70014.70014"/><path d="m433.24411 99.077521c0 .20743-.16926.37669-.37731.37669-.20742 0-.37669-.16926-.37669-.37669 0-.20742.16927-.3773.37669-.3773.20743 0 .37731.16926.37731.3773"/><path d="m490.94795 123.87479s-2.14658-1.51569-2.02348-2.40048c0 0-1.89268-4.04697-4.80865-.1231l-.37669 1.00789-.1311.50779-3.03138.37669s-4.80865 4.68556-5.31645-3.03907c0 0-2.40817-5.69344-4.80865 1.52339l-.1311.75399-.12311 3.30066-.63089 1.76189s-1.76959 2.15428.50041 4.93176l.25359.51579v1.01559s-2.02349 7.07834-.12311 8.71713c0 0 .8848 6.71673 3.03907 7.09372l.8848-.50779.37669-.88479.1231-.76169v-1.76959l.2542-.76169.25359-.50041h.63859.8771s3.66996 2.02349 4.68555 1.76959l.89249 1.52338.11571-2.15428.13111-.76169.1231-1.01558-.1231-.8771-.13111-1.26949.13111-1.76958v-.6309l.37669-.63089-.25359-1.01559v-1.26179c0-.39269.25359-1.26949.25359-1.26949v-1.13868l-.25359-.37731v-.38469l-.1231-1.0079-.13111-1.64648.76939-.6309-.13111-1.14638-.25358-.88479v-1.00789-.6309l-.13111-.51518s2.53897-1.13869 4.05466-.8771l.88479-.37669.6309-.25359 1.26948-.26159h.50779l1.0079-.25359"/><path d="m429.70494 136.66196.37669 1.89268s.76169 3.54687-1.89268 3.54687l-.63859-.5078v-.76169-.88479-1.00789l.3773-.5078.5078-.50779.50779-.37669.76169-.88479"/><path d="m425.01939 149.57223s-.1231 4.42396-1.00789 4.42396c0 0-.76169 2.91597 1.39258 3.29297l.5078-.26159s2.01578-.2462 1.00789-4.67786l-.88479-2.77748h-.38469z"/><path d="m433.8827 157.28916-.50779.50779-.13111.6232v.76169s0 1.64649 1.26949 2.40818l.37669-.63859.1231-.37731.50779-.63089v-.6309l-.3773-.38469-.25359-.37731v-.37669l-.1231-.76169-.8848-.1231"/><path d="m433.7519 165.38308s-1.26179 2.78518.5078 3.03907l.50779-.2542.24621-.50779v-.7617l-.24621-.3773-.3773-.6309-.13049-.3773-.5078-.13111"/><path d="m429.57415 185.37939-.50041-1.01559s-3.66997-4.93175.2462-7.08603l.89249.1311.75399.37669s.6309.6309.7617 1.13869c.1311.5078.3773 1.52338.3773 1.52338l-.2462 1.3849-.89249 3.16986-1.39258.37731"/><path d="m429.70494 185.75639 1.01559-.1231.6232 1.39258-1.63879.1231z"/><path d="m540.35783 66.340209.2382.361919 1.09253.484404.83863 1.084832.61551.969425h.72322l.72322-.246203.35392-.361919s1.81574-2.415867 4.1162-2.292766h-8.70174"/><path d="m580.31967 66.486392s1.23101 1.992706.21542 2.915968l-.15387.830935.10771.369305.44624.630895.46163.507794.45425.623201.33853.500408s.45363.630895 1.17716.661671c0 0 3.02368.02462 1.93115-4.862511 0 0-.39269-1.96193 1.54647-2.108113l-6.52439-.06955"/><path d="m589.66 66.717208s5.1241 4.439349 4.87789 9.917367c0 0 .73092 4.693246 5.49341 1.30026l.60812-.253589h.49241s7.67845-2.354317 4.75479 5.216427c0 0 7.43995-5.093326 14.02588 0l.49241.646283.73092.392078.6075.13849h.49241s1.83113-.392694.73091-5.870405v-7.832335s1.21563-4.046963-8.30166-3.26219l-25.00499-.392079"/><path d="m606.21715 70.771864c0 1.130996-.92326 2.046563-2.06195 2.046563-1.13099 0-2.05426-.915567-2.05426-2.046563 0-1.130995.92327-2.054257 2.05426-2.054257 1.13869 0 2.06195.923262 2.06195 2.054257"/><path d="m544.72794 77.011573c0 .331143-.37731.592734-.83863.592734-.46964 0-.84633-.261591-.84633-.592734 0-.323141.37669-.584732.84633-.584732.46163 0 .83863.261591.83863.584732"/><path d="m553.56816 284.16068s-4.98561 2.67745-1.06944 5.36261c0 0 1.83883.0769 2.52358-1.83883l.23882-1.92346-.23882-.37731-.38469-.38469-.29975-.3847-.15388-.29975-.53857-.38469-.0769.23082"/><path d="m567.67868 292.66237s2.91597-.6075.61551-2.75439c0 0-1.0002-2.15428 1.37719-3.52378 0 0 .53857-3.07754 2.52359-2.15428l.31514-.53857 1.06944-.22281h.38469.45363l.23082.0769.54657.53056v.46163l-.3927.76939-.45363.15388-.84632.45424-.30775.38469-.30776.61551s-1.37719 2.06964-.9925 2.46203c0 0 0 1.13869-1.15408 1.3772 0 0-.53118 1.90807 1.83883 1.83883l.23082.15387-5.1318-.0849"/><path d="m577.11133 292.43925 13.34113-.69244s-5.755-.3847-2.83903-5.06255c0 0 1.45414-2.21583-1.45413-2.45434 0 0-2.07734.0849-1.61571-3.60072 0 0-1.60802-3.3776-4.06235 1.06944 0 0-.76939 1.84653.30775 2.61591v.38469l-.15388.29976s-1.53877.84632-1.37719 3.45453l-.16127.14588-.30775.23081s.30775 1.92347-.83863 2.14659l.15388.30775-.15388.38469-.38469.23082-.45425.53857"/><path d="m597.6539 281.54477c0 .85401-.58473 1.53877-1.30026 1.53877-.72322 0-1.30026-.68476-1.30026-1.53877 0-.84633.57673-1.53108 1.30026-1.53108.71553 0 1.30026.68475 1.30026 1.53108"/><path d="m391.38959 294.15498s4.17776-3.26219 2.44664-7.97852c0 0 .10033-4.07774 3.99311-1.90038 0 0 2.80825 1.6311 4.53937.35392 0 0 3.53917-1.53877 3.26219 2.73132l-.26959 4.90097s-.81555 2.07734 1.72342 2.53897c0 0-13.97203.6309-15.69545-.64628"/><path d="m391.98971 336.34803s3.29297-.1311 2.15428 4.54706l-.25359 1.01559.3773.49979 1.64649 2.66207s1.14638 5.81655 4.56245 5.18566c0 0 4.43165-1.51569 5.18565-5.43955l.37669-.37669h.38469s3.28527-1.90038 3.53917-3.16217l.37731-.13111.63859.13111.2462.37669.50779.1231s3.53917-.49979 3.92386-2.40048c0 0 1.77728-3.41607 3.16987-3.16217 0 0-13.54117-.754-14.94145-2.02348 0 0-4.80096-1.26949-7.07834.6232 0 0-1.76958 1.14638-4.81634 1.53107"/><path d="m449.31655 339.7564s-2.02348 0-1.89268 2.40818v2.14658l.2462 1.64648v1.2618l.1311 1.52338s-1.14638 4.55475.6309 7.58613l-.1231.50779s-2.15428 4.30856-.76169 8.10162l.1231.89249-.1231.8771-.1231.76169-.26159.76169s-.24621 1.89268.26159 2.40048v7.97852l-.26159 7.84002s.13048 6.70904 1.02328 7.71693c0 0 .37669.5078-.3847 1.39259-.76169.89248-1.39258 4.68555-.50779 5.19334v1.51569s.89249 8.22472-2.15428 6.07814c0 0-.88479-4.05466-3.03137-2.65438v.50041l-.1311.63859-.5078 2.26968-5.81655-11.51768s-2.53127-3.53917-4.80865-3.66997l1.26179-.37669.38469-.75399.50041-.13111h.38469l.24621-1.90038s.51579-3.15447 1.14638-3.28527c0 0 0-4.04696 2.77748-3.92386 0 0-.37731-2.53128-1.0079-2.65438h1.0079l.63859-.51579h.37669s2.02348-2.40048 1.26179-5.17796l-.2462-.5158-.13111-4.30086s-.2462-2.14658-2.02348-1.90038l-.50779-.37669-3.03138-1.76958-.76169-.6309v-.63859l-.2542-1.13869.1231-2.77747s-3.28527-1.01559-3.41607-2.15428l.38469-.38469.25359-.8848.6309-.1231v.37669l.49979.13111h.38469l.25421-.5078.37669-.63089s1.90038-.25359 1.63879-5.06255l.39208-.13111.1231-.75399 1.13869-2.65438.49979-.1311.38469.1311.1231.76169.37669.1231.38469.25359.12311.50041.26159.38469.3773.1231.25359-.50779.1231-.37731.5078-.88479.2462-.37669.26159-.50779s.37669-4.55476 1.63879-4.43166c0 0 .79247.33853.88479 2.53128 0 .1231.006.2462.006.37669 0 2.53127.6232-.37669.6232-.37669l.5158.50779s2.53127 1.26179 1.89268-4.17776l.1231-.63089.26159-.5078s.1231-3.03907-.76169-3.03907l4.55476 1.64649"/><path d="m444.8849 364.69216c0 1.2464-.50779 2.26968-1.131 2.26968-.63089 0-1.13869-1.02328-1.13869-2.26968 0-1.26179.5078-2.28507 1.13869-2.28507.62321 0 1.131 1.02328 1.131 2.28507"/><path d="m445.1388 388.72773c0 1.885-.59212 3.41607-1.32335 3.41607-.7386 0-1.33103-1.53107-1.33103-3.41607 0-1.88499.59212-3.41606 1.33103-3.41606.73092 0 1.32335 1.53107 1.32335 3.41606"/><path d="m451.09383 340.89509s1.76959 1.13869.6232 4.04697l.13111 1.52338s.1311 2.53127.38469 3.41607c.2462.88479 0 3.16217-.38469 3.54686-.37669.3693.50779 5.68575 1.01559 6.57824 0 0 .2462 3.79306-.3847 3.91616-.63089.12311.25359 2.66207 1.01559 3.29297.754.63859-.1231 2.66207-.63089 3.03907-.5078.37669-.3847 4.17776.37669 4.93945.76169.754-.76169 3.15448-.8848 3.53917-.1231.38469-.50779 3.66996.8848 5.31644 1.39258 1.63879-1.0079 3.66997-1.14639 4.67786-.11571 1.01559-.5004 3.29297 0 4.05466.5078.754.3847 1.00789 0 1.26179-.3773.25359-.3773 4.17776.89249 5.06255 1.26179.88479 1.01559 4.42396 3.16217 1.00789l.1311-.88479v-8.34782s-.63859-9.625-.88479-10.1251c-.25359-.5078.50779-7.20913 1.01559-8.60172v-1.13869-.76169l-.1311-.76169-.37731-.754v-1.26948-.8848l.1231-.50779s.50779-6.96293-.2542-7.20913c0 0-.25359-6.33204.88479-6.83983v-1.63879-.88479l-.37669-.63859s-.25359-3.92386 2.40048-2.53128c0 0-4.30086-4.93175-7.58613-5.43955"/><path d="m436.66018 379.36432-.1231-.50041-.25359-.63858-.13111-.76169v-.3847l.13111-.49979.1231-.50779v-.6309-.49979l-.37731-.76939-.88479-.5004-.63089.25359-.37731.63089-.38469.63859v.49979.5078l.1311.5004.50779.2616v.63089l.24621 1.01559.3773.37669.5078.2542.50779.1231h.6309z"/><path d="m369.97762 363.16878s1.51568 3.92386 2.53127 2.15427c1.0079-1.76958 1.51569.24621 2.52358.754 1.01559.50779 1.90038.25359 2.28508-.63089.38469-.89249 3.79306-.25359 3.66996 3.40837 0 0 .25359 7.84772 1.00789 8.35552l.76169.50779-.3773.754v.76938l.25359 1.00789.6232.12311.1311-.754v-.6309l.1231-.51518s2.66207-1.39258 2.79287-3.15447l.6309-.1231.50779-1.13869s1.64648-.13111 1.39259 2.78517c0 0-.13049 1.63109.88479 2.90827 0 0-.26159 4.55476-.6309 4.67786v1.13869.76169s.36931 5.18565 1.89269 5.56265l.25359.38469v.6309l-.13111.37731s-.3773 3.67765 1.64649 3.80845l.25359.7463v.5078s2.14658 2.40817 2.90827-.7617l-.1231-.6232-.37731-.26159v-.50779l.88479-.37669.25359-.76169-.50779-.1151h-.50779s.3773-3.29297 1.40028-2.66207c0 0 .75399-3.54687-.26159-3.54687 0 0 .89248-2.66207.38469-2.78517l-.5078-.3773-.37669-.3767v-.38469l-.38469-.75399v-.6309-.63089l.38469-.5158.37669-.1231.8848-.13111h.37669l1.01558.25359.3767.8848v.50779l-.12311.38469-.25359.6309-.1231.50779 1.76959 5.30876.2462.76938-.1231.37731-.38469.76169-.24621.49979s-.88479 4.67786 1.26179 5.82424v.49979l2.27738 1.90038s1.90038 1.13869 1.26949 4.05466c0 0 3.79306 8.72482 7.08603 5.93965 0 0-.63859 7.72462.1231 8.35551 0 0 2.40817 8.85562 1.13869 10.5021 0 0-.37669 2.66207 1.52338 3.29297 0 0 6.20124 2.27738 7.59383 1.90038 0 0-3.16987 1.64648-1.39259 3.15448l.37731.63859-.13111.50779-.3773.6232-.25359.38469s-2.90827 9.49421-7.97083 7.07834c0 0-4.68555-3.03137-7.20913-.3693l-.88479.1231-2.91597 1.40028h-.76169v.6232s-2.27738 4.80865-5.43955-4.30086l-.1311-1.01559v-1.26179-.63089l-.1151-.76169-.1311-.50041-.25359-.5078-.25421-.63859-.13049-.75399-.1231-.38469s-1.90038-.37669-1.76958-1.63879l-.38469-.1231-.37731-.63859-.2462-.37669-.63859-.3847-1.26949.25359s0 2.78517-3.28527 2.65438l-.38469-2.14658s-2.27738-4.67786-1.38489-7.97083h-.5078l-.50779-.25359-.5078-.25359-.88479-.1231v-31.89099s-.37669-2.28507-3.28527-3.54686l-1.52338-.37669-.754-.37669s-6.45513 2.27738-6.33203-8.47862v-1.14638-1.63879-1.51569l-.25359-1.64648-.24621-.63859v-1.51569-2.02348-1.64649l.24621-1.13868v-2.14659l.1311-4.68555"/><path d="m399.58354 373.67088c0 .42347-.33053.76169-.754.76169s-.76169-.33853-.76169-.76169c0-.42286.33853-.76169.76169-.76169.42347 0 .754.33853.754.76169"/><path d="m426.03498 436.94506s-1.51569 1.76959-.1231 2.40048c0 0 1.00789 1.52339 2.01578.754 0 0 1.26949.76939 1.90038-.6232l.25359-.50779v-.63859l-.50779-.8848-.50041-.37669h-.63859l-.63089-.1231-.37669-.26159s-.3847-2.14658.5004-2.27738c0 0-2.90827.63859-3.53917.63859h.6309s1.39259 1.90038 1.01559 1.90038"/><path d="m436.66018 435.29089c0 .28436-.22282.51579-.5078.51579-.26897 0-.49979-.23081-.49979-.51579 0-.27698.23082-.5078.49979-.5078.28498 0 .5078.23082.5078.5078"/><path d="m457.91827 436.94506s-3.66996 4.04697-5.82424 4.93176c0 0 2.15428-2.40048 1.01559-4.17776l.76169-.50779v-.76169l-.2462-.50041-.13049-.37669.37669-.1311s1.76959-.63859 2.03118 1.89268c0 0 .63089 1.52338 2.01578-.3693"/><path d="m448.68566 442.76161s-1.90038-.63089-1.39259-4.93175v-.5158-.63089-.50041s-.50779-3.41607-2.40817-.6309c0 0-.6309 4.80866 0 5.81655 0 0 1.00789 2.15428-.50041 3.29297l1.0079-.5078s1.39258-.1311 3.29296-1.39258"/><path d="m369.34672 511.09066.1231.63859.5078.50779.37669.49979.2542.5158s3.41607 5.55495 4.93176.63089c0 0 .26159-2.66207 1.52338-2.66207 0 0 3.28527 1.89269 2.90827 7.47073 0 0 1.76959 3.40837 3.03907-1.40028 0 0 .6309-5.56265 2.65438-5.05486 0 0 2.15428.2462 2.40817 9.74041l.25359.37669v1.13869l-.1311.88479s3.41607 5.94734 4.93175.25359l.26159-1.00789v-.63859l.37731-.6309.25359-.63089s2.65438-4.80866 5.31645 1.00789v.38469.754l.1231.50779s.88479 2.16197 2.15428 2.91597c0 0 2.02348 2.40048 1.89268 4.17006 0 0 1.26949 2.91597 1.90038 2.78518 0 0 1.01559 0 .6309 1.39258 0 0-.37669 4.93176 1.90038 5.43955l2.53127-.1231s5.31645 1.63879 5.43955 7.08603l.50779 7.08603s.6309 2.15428-1.14638 2.53128v.37669l1.77728.88479s-8.22472 2.15428-13.28727.25359h-14.67217-1.64648l-1.26948.1311-1.90038.4998-.76169.37669h-11.0022s-4.68556-.24621-4.17776-13.53348l.754-.63089.51518-.6309 1.64648-.88479.2462-.50779.38469-.6309 1.63879.6309-.2462-1.01559-.37731-1.13869-.1311-.5078.2462-1.26179.76939-.3773.2462-.38469.1311-1.2618-.1311-.38469-.37669-.50041-.37669-.1311-.76169-.50779-.25359-.37669-.37731-.37669-.50779-.13111h-.50779l-.6309.13111-.1311.37669-.37669.88479-.63859 1.13869.26159-6.20124.3773 1.13869h.7617l.5004-.25359.3847-.50779v-.754-.37669l.63089-.26159v-.754h-.50779l-.5078-.76169-.5004.1311-.63859.1231-.8848.8848.12311-9.36341.13048-1.26179.13111-1.90038v-6.96294"/><path d="m465.766 561.70847s1.64648-1.26179.89248-4.42396c0 0 .36931-8.74021 3.91617-8.35552 0 0 2.78517-1.39259 1.90038-6.57824 0 0-.63859-3.66996 4.30086-2.65438 0 0 4.93945-1.64648 4.68555-5.57803 0 0 4.30086 4.43935.25359 10.76369l-.51579 1.26179-6.32435 11.14069s-4.30086 4.80865-9.10951 4.42396"/><path d="m437.92197 529.69437.51579-1.01558v-.6309l.25359-1.13869s1.0079-12.02548 2.66207-11.77158c0 0 .8771-.37669.62321 1.01559l.3773.37669.37669.38469.26159.63089.13111.89249s1.26179 4.42396 2.26968.25421l.1311-1.01559v-1.14639s-1.01558-7.20913 2.66207-7.59382l.8771.1311.5078.5078.38469.38469.37731.63089.25358.50041.3767.38469.3773.76169-.2462.6309-.1311.38469.50779 4.29317s2.26968 3.29296 2.65438-1.01559l.1231-1.39259v-1.39258l.38469-1.508.1231-.76169v-1.39258l-.1231-1.52338-.1311-.754-.1231-.89249.2542-.8771.76169-2.15427v-.6309-.88479l.2462-.76169.26159-.37731.5078-.26159.49979.1231.25421.39208.75399.24621.13049.38469.2542.37669.76169.1311.37731-.1311.37669-.37669v-.88479l-.25359-.3847v-.49979s1.51569-4.93945 3.54687-3.92386l-.25421-.6309-.25359-.51579-.63859-.49979-.6232-.5078-.26159-.63089-.1231-.5078s-1.76959-28.34412-.1231-33.02968l-.76169-1.00789-.37669-1.01559s-1.26179-10.002-15.81855-11.0022l-.6309-.50779-.51579-.38469-.2462-.5078s-1.76959-5.69344-.63859-6.70134l-.6309-.13048-.37731 1.01558-.25358.37669-.6309.76169-.25359 1.0079v.63089l-.38469.5078-.36931.76169v.38469.6309l-.1311.49979-1.13869.25359s-1.13869.89248.5078 6.45513c0 0 0 3.41607-.63859 3.66997l-.25421 1.89268.1311 1.02329.12311 8.72482.26159.63089v.76169l-.26159.6309-.12311 2.15428-.50779.37669v-.5078h-.50779l-.8848.38469v1.0079 1.52338s-.50779 16.94954-.1231 21.63509c0 0 2.27738 32.90658 2.52358 33.66058"/><path d="m446.15438 448.71665-.13048.50041-.13111.63089v.5078.63089.37669l.13111 1.52338.38469.25359h.63089l.3847-.25359.5004-.25359.13111-.37669v-.63089-.5078l.25359-.50779.1231-.6309-.24621-.63858-.26159-.5078-.37669-.37669-.63089-.1231h-.5078l-.2542.38469z"/><path d="m498.66488 522.69298s1.69265 12.9949 4.56245 16.03397l.16188 1.16946.33853 1.01559 1.01559 3.53917.83863 2.53897.67705 1.68495.5078.67706s7.08603 7.7554 8.94794 7.93236c0 0-1.69264-5.57035 4.54706-4.73172 0 0 5.23951.68475 6.7552-2.02348 0 0 2.52358-1.01559 3.20064 0 0 0 3.20833 1.35412 2.53128-3.20064 0 0 .84632-3.54686 4.38549-1.01559 0 0 .67706.33853 1.69264.33853l.83863.50041 1.01559.68475.50041.50779.67706.5078.66936 1.67726.5158-.83863.84632-.33853.33053-.49979s1.34642-1.70034 2.19274-.34592c0 0 1.53108 2.02348 2.19275 1.18485 0 0 1.86191 2.02348 3.3776-.51579 0 0 3.03137-.32314 3.3699-4.88559 0 0 1.19255-2.02349 2.36971-.5078l.83863.33853.67705.33114 4.05466.17727.66937-.67706.33852-.50779.16927-.67706s1.00789-3.3699 3.03907-3.20833l1.00789.17665.84633.66936.50779.16927.50041.33853.16926.67705.33853-.84632.50779-.16926.84633.16926.67706.16927.50779.16926 1.16946-.50779.84633-.4998.67706.4998.16926 2.8698s5.05486-11.97932 4.54706-19.74241l-1.0002-.33853-1.18485-.5004-.33853-.66937-.33853-1.02328v-.83863l.33853-.84632.16927-.33853.16926-1.0079v-.67705-.84633s-1.68495-1.17716-2.02348-1.85421c0 0-3.88539-1.34643-4.05466-3.03138 0 0-4.55475-3.3776-4.55475-6.41667l.67705-.33853.5078-.16926.84632.33853.83863.50779s-12.65638-14.17206-14.16437-20.08094v1.01559l.16188 1.18485.50779 1.17716.16927.5078.66936 1.17716.16927 1.01558-.16927 1.51569-.33853.84632-1.00789.33853-.84632-.16926-.5078-.67706-.33853-.49979-.33052-.84633-.33853-.67705-.16188-.66937s0-6.58593-1.18485-7.76309c0 0-2.48512 22.49681-14.74911 18.08823-.3693-.1311-.75399-.29236-1.14638-.47702-.15388-.0769-.31514-.16187-.46963-.23081l2.02348 1.68495.83863.66937.50779.51579.33853.83863-.50779 1.00789v1.18486l-.16127 6.07813-.51579 1.33873-.16927 1.01559-.5004 1.52338-.67706.16927-.5078.16188s-1.68495 3.88539-4.04696 1.52338l-.84632-.67706-.50779-.33853h-.5078-.50041-1.35411l-.83863-.50779-.16927-.83863.16927-.5078.66936-.67706h.5078 1.01558.50041s1.35412-.84632 1.35412-1.85421c0 0-.84632-2.02348-1.35412-1.86191 0 0-.83863 1.19254-1.34642 1.19254l-3.70844.33853-.50779.33053-.67706 1.00789-.50779 1.35412-.16188.67706-.16926.50779-.5078.66937-.16926.67706-.5078.50779-.83863.33853-.84632.66936-.50779.33853-1.0079 1.35412-.16926.50779-1.35412 1.0079-1.34642-.67706-.67706-.5078s-6.41667 0-6.90907-2.36201h-1.19255l-.50779.67706-.50041.33853-1.18485.67706-4.55476 2.19275-.33853.49979-.33853.50779-.83863.16927-.50779-.5078-1.01559-.66936"/><path d="m535.27989 498.39581-.66936-.33853-.67706-.16926-.50779.16926-.16927.50779-.33853.84633-.16926.83863-.16927.34591-1.01558.16188-.66937-.16188-.16926-.34591-.5078-.67706-.33853-.33114h-1.00789l-.67706.33114-.50779.33853-.16927 1.01559.16927.50779.33853.49979.16926.68475v.4998l-.50779 1.01558s0-.17726-.50041.16188l-.50779.34592-.16927 3.3699s-4.72402-5.06255-1.85422-9.10951l-.16926-1.85422-.50779-1.18485-.5078-1.01559-.16926-.66936-.16927-1.17716-.16926-.84632v-.67706s-.83863-3.71613 1.01559-2.86981l-.16927-.66936v-.33853s-2.8698-5.06255-2.70054-6.2474v-1.18486-8.09392l-.16926-.83863-.33053-.67706-.34653-.84632-.84632-.83863-.33053-.5078-.16927-3.87769.84633-.16927.33853-.84632-.5158-.16927-.49979-.16926-.33853-.67706-.16927-.83863v-.68475-.49979l.33853-.67706s.84633-3.54686-1.00789-4.89329l-.17727-.83863-.16188-1.01558v-.5078l.33853-.83863.66937-.67705.16926-.84633v-1.34642l-.16926-1.51569-.84632-1.18485v-.49979-1.01559l.68475-.51518s-.17727-4.03927 1.0002-3.70074c0 0-.33053-4.04696-2.01579-4.73172-1.68495-.66936-.34653-.50779-.34653-.50779s2.03117.50779 0-1.17716l.34653-.66936.83863-.34592.50779-.33853.5078-.33052.50779-.5078.33853-.84632.33853-.83094.33053-.51579.67706-.5078.50779-.16926.66936.16926.5078.5078s2.53127-.16927 1.86191-2.20044l2.02348 1.01559.49979.67705v1.51569 1.18485l-.33053.67706-.50779.33853.16927 24.12021 1.17715 1.52338s1.34643 1.34642 1.01559 3.3776v.66936 1.01559l.16927 1.01559v.50041l.16187 1.18485v9.10182l-.16187.84632v.85402s-.33853 4.20853 1.17715 4.71632l.33853 3.36991.5078 2.20044s-.5078 7.42456 4.04696 11.13299"/><path d="m506.93577 450.30927s1.00789 4.72403-5.23182 6.07814c0 0-2.53127 1.17716-.84632 4.21623 0 0 .50779 4.04696-1.34643 4.38549l-.16926.67706v.84632l.33853 2.02348v1.17716l-.33853.5078.33853 1.35411-.16927 1.0002-.16926.85402.16926 1.00789s2.36201 2.86981 1.34643 3.3776c0 0 2.20044 2.86981 3.3776-2.19274l.16926-.5078.67706-.16926s.50041 1.68495 3.03137 1.68495c0 0 3.03907-.50779 1.85422-3.8777 0 0 2.70823-1.01559 3.03907-5.90887 0 0 2.02348-.16188 2.36201-4.54706.0849-1.10022.1311-1.67726.14649-1.93116.0554-.76169-.14649 1.42336-.14649 1.42336l-.33853-.50779.51518-2.36201.33853-1.0079-.33853-1.35411-.33853-.67706h-.68475l-.50041.16926-1.01559.66937-.66936-.33115-.50779-.67705-1.01559-.84633-.33853-1.17716.67706-.33852s.33853-2.36201-1.01559-2.86981c0 0-.66167-2.69284 1.18485-4.05466 1.85422-1.33872-.33853-.33114-.33853-.33114l1.69265-3.54686v-.83863l-.67706-1.34642-.50779-.17665-.5078-.33115-.67706-.50779-.33852-.33853-.83863-.16927-.33853.5078-.5078.66936v.67706l.33853 1.18485v.5078.83863.67706.50779l-.33853 1.68495-.50779 1.01559-.83863 3.20064"/><path d="m496.92607 464.21975.0308 12.54866.13849-.14588.20742-.65397.44625-.6232.10771-.2696.13849-.42347s.0308-.13848.0308-.2382c0-.10032.0369-.41546.0369-.41546l-.0695-2.86981-.93865-.82324.20743-1.56185.17727-.27698.34591-.20743.16927-.27697v-.37669l.0369-.24621-.0689-.26959-.10771-.17665-.13849-.16927-.10033-.13848-.13849-.41547-.0769-.52318-.0616-.16927s-.0369-.23882-.0997-.34591c-.0769-.10033-.10772-.30776-.10772-.30776l-.16926-.6232"/><path d="m510.73653 428.54338s-1.77728 5.31645 4.29316 4.81635l.42285.33115.0923.33852v.42286s-.59212 3.3776-2.53897 1.60032h-.33114l-.26159.0923-.5078.24621h-.75399-.41547l-.34592.0923s-1.09252.37669-1.3695.86941c-.0369.0769-.0616.14587-.0616.22281 0 .59212.33853-1.09252-.67706-1.43105-1.00789-.33853-.16926-.0923-.16926-.0923l-.0769-.58473-.0923-.76169s-.50041-4.30086-2.61591-4.55476c0 0-5.30875.67706-3.70843-2.61591l.0849-.33853-.0849-1.60032s-3.97002-3.1237.42347-5.90887l.42285-.0769.50041.41547.59212.50779s1.93885 2.69285 3.97002 2.53128c0 0 4.30086 1.42336 3.20834 5.47802"/><path d="m512.76001 398.93747s3.03137.25359 3.20064-.5078l.0849-.33853v-.50779l-.0849-.41547-.24621-.42285-.43085-.0849-.41547.0849-.16926.2462-.42286.25359s-2.19274 2.03118-3.20833-2.19275l-.0849-.49979.0849-.33853s1.26948-4.21622-.76169-6.58593l-.0769-.49979v-1.85422l-.0923-.76169-1.68495-.0843-.0849.42347s-.92326 3.79306-2.70054 3.87769c0 0-7.5015 4.47013-5.06255 12.91028l.16927.59212v.33852l-.24621.42347s-1.52338 2.53128-.0843 4.71633v.59212l.16188 1.01559.16926 1.00789s.76169 2.86981 1.43875 2.95444l.67706-.16927.25359-.33853.33853-.2462.16926-.42285s1.09253-2.28507 2.77748-1.43875c0 0 1.76958.67706-.16927 3.1237l-.50779.58473-.25359.59212.0849.58473s-.0849 2.86981 2.53128 3.04677c0 0 2.78517.0843 1.93885-3.97003v-.25359-.33114-1.26949-1.00789l.0849-.67706.16926-.59212.0849-.58473v-.33853l.25359-3.21603s2.36201-5.13948 2.11581-7.41686"/><path d="m520.00761 362.57635s5.23181.76169 4.13929 4.63939c0 0-2.61591 2.61591.33853 3.96233 0 0 .41547 5.82424 2.86211 3.3776l.33853-.0849h.33853.25359l.59211.0849.25359.0843.24621.25359.25359.25359s1.86191.83863.84632 5.47802c0 0-1.43106 4.05466-4.05466-.42285l-.66936-.25421h-.33853s-1.68495.67706-2.19275 3.63919l-.0849.33114-.42347.16927-.2462.25359s-2.28507.76169-2.28507 5.48571l-.0769 4.04696s1.26179 4.89329.83863 5.57035c0 0 1.60801 3.96233 5.47802 1.43105l.34653-.66936.67706-.59274.33114-.76169.50779-.33853s1.34643-.49979 1.60032-1.68495l1.01559.26159-.16926 2.01579s1.93884-3.54686 5.22412-5.65498h-.4998-.76169l-.33853-.0769-.0843-.26159-.16926-.75399v-.67706l.42346-.59212.67706-.66936h.25421 1.43875l.5004-.0923.67706-.16188.25421-.16926.50779-.76169.16927-.0849h.25359l.2542.0849.0769.33852-.25359.33115-.0769.26159-.25359.42347-.0923.2462-.0769.25359-.25359.34592-.16927.42346s4.72402-1.27717 7.76309.16188l-.16926-.50779-.34653-.33853-.0769-.49979v-.34592l.33853-.75399.16926-.16927h.754.25359l.67706.25359s1.34642 1.51569.59212 2.77748c-.76169 1.26948-.17727.0923-.17727.0923l-.41547.0769-.25359.0923-.33853-.0923s6.33204 3.71613 7.5092 8.60942v-.76169l.16926-.92327.0849-.33852.33853-.33853v-.66937-.93865s3.70844 1.52338 1.85422 3.80076c0 0-.0849.76169.33853.93096 0 0 .41547 1.01559-.0849 1.43105v.42347l.25359.59212.2462.0769.16926.68475.16927 1.33873.25359.67706-.0849 6.41667s-.5078 4.21622-2.60822 1.68495l-.0849.42285.16188 1.26179.0923 12.40248s.16188 5.06255 9.61731 4.80866c0 0-2.61591-4.04697 1.85421-4.63939 0 0 3.72382-1.11561 4.30856-1.73881.0431-.0369.0616-.0769.0769-.1151l.42346.93095.0843.33053.0769.42347.25359.25359 3.03907.16926s5.90887 9.02488 6.67056-1.10022l.16926-.16926.33853-.16927h.16188l.33853.0923.42347.16927.33053.16187.16926-18.98071s.68476-13.83354-4.20853-18.88839v.92326l-.34592.84632-.2462.49979v.5078l-.0849.33852-.25359.33853-.25359.24621-.42347-.0769-.25359-.42347h-.33853s-3.46223 1.01559-3.29296 3.6238l-.2462-.0769-.42286.16127-.42347.2542-.33853.16926h-.83863l-.25358-.0769-.16927-.26159-.25359-.24621s-2.53897-1.52338-3.79306.16127l-.25359.0849-.5078-.24621-.25359-.26159-.25359-.16926-.33852-.15388-.16927-.34592-.25359-.42346-.16188-.33853-.17726-.42286s-1.51569-4.47012 2.03117-4.63169c0 0 1.68495.33114 2.02348.92326 0 0 2.95444 1.34642 4.1316-1.94654 0 0 .92326-3.53917-2.02348-2.94675l-.0849-.59273s-1.34643-3.45454-3.54687-2.27738l-.58473-.0843h-.42347l-.50779.16926s-.33853-.92326-.92326-.66936c-.59212.25359-.16927-.0849-.16927-.0849s.98481-5.85502-3.63149-6.39359c-.0554-.006-.11572-.0185-.16927-.0246l-.25359-.0769s-1.85421-2.03117-2.43895.49979l.0769.33853v.41547.68475.50041l.17727.42347.2462.58473-.2462.25359s-3.3776 3.80076-4.80865 1.35412l-.17727-.42347v-.59212-.41547l.17727-.60012s.92326-4.71632-2.03118-6.40128l.0554-.76938.0308-.57673.5078.66936.33852-.25359.0843-.41546.16926-.26159.25359-.41547v-.34592-3.1237s.83863-.83863-1.43875-.754l.0843-.41546h.76169l.16926-.33853v-.84633-.84632-.59212s-3.46223-1.17716.42347-3.20064c0 0-32.56805.33853-33.7529 1.51569"/><path d="m534.61053 367.8928-.67706.66936-.25359.5158-.33853.33053-.0849.42347v.76169 1.00789l-.16926 1.86191s-.42347 4.47013.42347 6.15508l.0843.33052.0849.42347v.43086s-.76169 6.49361 2.02348 4.97792l.59212-.25421.50779-.25359.754-.50779.33853-.59212.59212-.66936.33853-.68476.16926-.25358v-.50041l.0849-.5078.16927-.41546.0769-4.30086-.16927-.76939-.42285-.49979-.24621-.42347-.33852-.25359-.33853-.50779-.25359-.59274v-.49979-.50779-1.01559-.41547l-.0849-.50779v-.42286l-.16927-.42346-.25359-.5078s-1.17716-1.76958-2.43895-1.60032"/><path d="m565.57056 399.94536v2.70054s.754 2.27738-4.47781 1.51569l.0843.76169.0849.26159.50779.2462.16927.42286v.42347h.76169s2.27738.0769 2.27738 3.03906c0 0 .0849 2.94675 1.43105 3.20834l.50041-.0923.43086-.0843.25359-.16927.16926-.2462.16188-.59273s.34591-2.44665 2.95444-2.86981l.50779-.16926.42285-.33853.0849-.25359.16927-.58473s.66936-1.69265-2.02348-1.52339c0 0-2.45434-.25358-2.11581-3.28527l.25359-.33853.0923-.43085v-.41547l-.0923-.42347-.25359-.26159-.41547-.16188-.33853-.0769-.42347-.16926-.33853-.0923h-.42347-.41546"/><path d="m643.27841 358.25241-.55396.22281-.44624.66167-.10772.44625-.11571 18.119v1.32335.88479l.22281 1.10791v.55396l-.55396.88479-.21542.77708v.66167l.54657.8771.55395.55396h.55396.44624l.21543-.55396.22282-.43824.22281-.76939.11571-.77708v-.77707-.66168-.66167-.33052-.66167-.66937-1.21563-.43824l.21543-.43824s.33053-3.7546-.33114-4.31625c-.66167-.55395 0-2.8775.76938-3.20833 0 0 1.0002-1.97732-.88479-4.19315 0 0-.9925-4.08543.23082-4.30855 0 0 1.32334-3.09293-1.10792-2.65438"/><path d="m652.22635 364.16898c0 .50779-.32314.93865-.72322.93865-.39208 0-.70784-.43086-.70784-.93865 0-.52318.31576-.93865.70784-.93865.40008 0 .72322.41547.72322.93865"/><path d="m651.89551 370.73952c0 .61551-.29975 1.10792-.66936 1.10792-.36192 0-.66167-.49241-.66167-1.10792s.29975-1.10022.66167-1.10022c.3693 0 .66936.48502.66936 1.10022"/><path d="m657.64282 368.74682-.55396-.33115v-.54657l-.43886-1.32334v-6.19355l.10772-2.32354v-1.20793s.9925-3.10062 2.65437-1.22332l2.31585-.10772.55396-.10771.43824-.66167.11571-.66937.21543-1.10022s.11572-7.07064 2.8775-6.97062c0 0 2.43126-.32314 1.98501 4.7548 0 0-1.20793 3.09292 1.99271 3.98541l.55396.33114.22281.43824 1.32334 4.63939 2.09273-.10771.44624-.55396.44624-.22281.21543-1.53877s1.33104-4.42396 3.20833-1.88499l.66167.10771 1.55416-1.43105.10772.32314s-.66168 8.18625.54657 10.17895c0 0-2.43126-.33114-3.87001 2.20044l-.33114.44625h-.54657l-.44625-.22282-.44624-.33052-.10771-.44625-.21543-.65397-.11572-1.66187v-.66167l-.32314-.99251-.11571-.43824-.22282-.56196-2.09272-.43824v.55395.76939l-.22282.44624-.33052.43824-.22282.43886-.22281.33853-.22281.55396-.21543.66167-.22282.33114-.22281.43824-.43886.43824-.44624.33853-.33053.33115-.21543.55395s.43886 2.42356-.66936 3.64689l-.55396.43824v.88479l-.33052.55396v.55395s-1.32335 3.31605-3.09293-.22281l-.10771-.76939v-.55395l-.11572-.55396-.33053-.33053s-1.8696-4.20084-1.65417-4.64708c0 0-1.10792-1.8696.22281-2.20044v-.66936l.10771-.55396v-3.20833l-.33052-.65398v-.55396l-.22282-.66936v-.76939l-.10771-.54657-.22282-.44624-1.88499-.10772v.65398.56134l-.20742.43886-.33853.77708-.11572 1.31565v.44624.66167l.23082.66167.22281.44625.20743 1.43105v.55396l-.10772.44624-.22281.55396-.65398.66167-.33053.66167v.33114l.43886.66167v.44625l-.22281.54657-.43886.23081-.66167-.23081"/><path d="m671.12243 393.50561s-.33052 5.30875-2.32354.33053c0 0-.66167-1.99271-.21543-2.21583l-.55395-.66167-1.99271-.88479s-1.8773.22281-1.98501 3.64688l-.1151 1.10791-.22281 1.0002-.21543.8771-.11572.44625s-.43824 2.09272-.10771 2.64668c0 0 .22281 5.96273-.66167 6.19355l-.10772.44624v1.10022l.10772.33114s.43886 2.32354-1.0002 2.20813c0 0 4.09312 2.54667 6.30126-2.31584l3.98541-11.16377s.99251-1.55416-.77708-3.09293"/><path d="m599.4004 404.66938s2.8775 2.43126.76939 5.19335c0 0-1.21563-1.32334-.76939-5.19335"/><path d="m614.31877 414.00202c0 .40008-.42285.72322-.93865.72322-.52318 0-.93865-.32314-.93865-.72322 0-.3927.41547-.71553.93865-.71553.5158 0 .93865.32314.93865.71553"/><path d="m619.95067 415.17148s-1.53877-2.10042-.76939-2.22352l-.10771-.32314-.89249-.1151-.32314.33853-.1151.55395v.98482l.1151.78477.10771 1.10022v.66167s.66937 1.32334 2.10042 1.32334l.21543-.54657v-.56196-.76938l-.33053-1.20794"/><path d="m625.92109 414.38671s0-1.8773.77708-1.8773c0 0 .21543-4.41627 1.65418-4.63939h.43824l.33853.33053.32314.33853.11571.54657v1.55416.65397s.10772.44625.44625.55396l.21542 5.63959s.33853.9925 1.43875.9925l.43824.21543v.56135.87709l.11572 1.0002-1.33104.22282-.43824.21542-.11571.44625s.66167 6.6244-2.09273 6.84752c0 0-2.10042-.8771-.9925-2.97752l-.11572-.66936v-.55396l-.10771-.54657s-.33053-2.54666-3.87001-.56196c0 0-2.7544 2.21583-4.20084-1.65418 0 0 .22282-2.64668 1.76959-1.65417l.54657-.1151v-.43824s1.0002-2.20814 2.43895-.43886c0 0 1.43105 1.8773 3.09292 0 0 0-.10771-1.0002-1.10791-1.43875l-.21543-.55396v-.43824l-.33114-.22281v-.33114h.66167l.33053-.10772v-.9925l-.8848-.23082s-1.9927 1.33104-2.76209.55396l-.33052-.55396.10771-.43824.33853-.44624.43085-.32315h.56196.43086l.33853.32315.44624.22281 1.10022.10771"/><path d="m644.26322 461.91159-2.86981-2.32354s.76939-2.97752 0-4.19314c0 0-.11571-3.65458 1.65418-3.43146 0 0 2.66207.33114 1.10791 5.7473 0 0-.66167 3.42377.10772 4.20084"/><path d="m645.0403 462.9041s3.09292 1.32334 2.8775-3.42376l-.11572-.55396s-.55396-3.7546 2.42356-3.65458c2.99291.12311.33853-.10032.33853-.10032l-.22281-.76939.33853-.66936.33052-.22282.10772-1.64648.66167-.33853.66167.10772.66167.33114-.10771 9.72502s3.20064 4.42396 3.53916-3.42376c.0246-.60012.0431-1.11561.0616-1.54646.0308-.82325.0554-1.35412.0689-1.66188.0696-1.66187-.1311 2.8775-.1311 2.8775l.33114-4.09312.22282-.54657s2.64668 14.58753 16.01858 24.53567l.44625.32314h-.66937-.65398l-.55395.33115s-3.76229 2.10811-.78477 6.7398c0 0 .66936.66167-.65398 2.43126l-.45363 1.66187-.10033.88479-.43886.33115-.1151 1.54646v.66167s-1.10791 3.53917-.33114 4.42396c0 0 .11572 4.96253-.88479 5.7473 0 0-.66167 3.7546.88479 4.63939v1.10022 1.0002l-.21543.55396v6.07814l-.11571.33052-.22282.54658s-2.20813 4.09312-.66167 7.19374l.10772 1.31565.55395 3.53917-.10771 2.10042-.33114 1.21563v1.10791l.43885 1.32334.33853 1.10791v1.7619 1.22332l-.44624.8771-.22343 1.0002v.76938s3.30836 7.84772 5.41647 5.41647c0 0 4.20084-.66167 4.53167.44624h.54657s-12.92566 20.21943-27.06694 13.91817l-.8848-.1151h-.89248-1.21563-.43086-1.9927s-6.52438-.32314-14.81066-14.24901l-.54657.1151-.1151 3.41607-.22343 1.0002-.21542.43824-.44625 5.08564s.76939 3.64688-5.63958 2.10042l-1.21563.10771h-.8771l-11.93316-1.10022h-1.33872-.76939l-.8771.10771-.66936.10772s4.30855-1.32334 4.64708-2.20814c0 0 1.32334-.66167-.99251-1.43875l.76939-.43885 2.20813-.10772h.55396s13.3719-8.95563 17.13419-16.80336c0 0 6.5013-10.64058 8.21703-16.54176.20743-.72323.34592-1.36181.40008-1.90808l.10772 1.21563-.33053 1.54646-.10772.99251-.22281.66936.10771.98482.44625.55395.21542.44625.22282.43824.33114.1151.44624-.22282v-.66167l.21543-.44624.22343-.76938v-.66937-.8771-.66167l-.33114-1.0002v-.8771-.77708l-.33053.10772-.10771-.33114-.55396-1.10022s2.31585-10.5098 1.76189-14.58754c0 0-.43824-2.53897 3.42376-2.33123 0 0 5.09333-1.10022 8.18625-7.40148l.33053.11571.10772 11.82545.10771.66167.33853.33114.33053.22281.66167-.22281.33052-.1151.33053-.32314.10772-.43886.11571-.77708v-.66167l.33053-1.43875v-.88479l-.11572-4.63939v-.88479l.33053-1.43875.22343-.76938v-.33853l.1151-.99251-.1151-.44624v-1.76189-.8848l-.22343-.66167h-.43085l-.66937-.11571h-.43886s.54657-11.51-.8694-14.33364c-.006-.006-.0123-.0123-.0123-.0246l.76169-.1151.33853.1151h.33053l.44624-.23081.33053-.54657.11571-.56135v-.66167s.99251-5.30106-2.53897-4.30855l-.45424.77708-.32314.33053-.11572.43885v.77708l.22282.66167v1.32334s-5.41647-7.07064-7.84773-9.5019"/><path d="m659.73554 488.87852-.10771.54657v.55396l.10771 1.10791.10772.76939.22281.44624.10771.33053.33115.32314.33052.23082.66937.33114.43886-.56196v-.32314-1.22332l.23081-.65398v-.88479-.77708l-.23081-.66167-.21543-.33053-.55396-.33114-.66936.11571-.66167.66168-.10772.33114z"/><path d="m653.88053 509.98274-.11572.66167v.43824s-1.10022 11.3869.89249 11.71773l.54657-.10771.33114-.56196.11572-.54657.21542-6.52438.23082-.66167v-1.10792s.9925-2.8698-2.21583-3.30835"/><path d="m676.30809 480.14601.23081.66167v.55396.43824.44624l-.33853.55396-.55395.65397-.21543.77708v.44625l.21543.43824.33852.43824.32315.22281.55395.10772h.33853l.33053-.21543.33114-.55396.10772-.43824v-.44624l-.10772-.54657-.11571-.55396-.21543-.55396-.33053-.66167v-.55396-.44624l-.89248-.76938z"/><path d="m732.68859 333.23972s5.07024.98481 1.63879 3.92386v.4924l-.16927.82325-.16926 6.37819s0 10.97143 1.31565 14.41058l.32314-1.30796.66167-2.78517.64628.65398.98481-.32314v-.49241l.16188-.66167s.82324-3.27758 2.1312-2.94674c0 0 1.96962 1.14638 1.96962 3.10831 0 0 0 2.79287 3.43146-.16188h.65397.33053l1.14638.16188.97712.49979.66167-.66167.49241-.80785.16926-3.76999.15388-.65397.33053-.82324.4924-1.14639.32315-1.14638.16187-1.30795s-1.46183-7.86311-3.76229-8.01699c-1.14638-.0843-1.14638-.16927-.85401-.23082.28436-.0689.85401-.0997.85401-.0997l-1.47721-.33114-.33053-.49241.16926-.65398 1.14639-.4924.65397-.64628-15.21842-.49241"/><path d="m728.26463 350.58934.48502-.81555.9925-.16926.48502.33114.33053.97712.16188.98481-.16188 1.14638-.49241.82325h-.82324l-.65397-.49241-.16188-.49979v-.65398l-.32314-.64628-.66168-.33115-1.80036-.4924.65398-2.28507s.66167 2.44664 1.96963 2.1235"/><path d="m723.18669 388.73543s.16188 5.56265 3.43915.65397c0 0 .98481-2.77747 4.42396-.82324 0 0 2.28507 2.1312 3.27758-3.10062 0 0 2.60821-2.78517 4.247.65398 0 0 1.80805 1.30795 3.10831-1.31565 0 0 2.95444-1.96193 3.11601 1.63879.16188 3.60072 0 .33114 0 .33114s0 2.29277 1.96963 2.29277l-1.80806.48502-1.14638.49241-.48502.82324-1.14638 1.14638-1.31565.97712-1.14639.98481-.32314.32314-25.05116 10.48671-.55396-7.16297-.10032-1.19254 1.13869 1.47722.5004.65397.65398-1.14638.65398-.65398.32314-.82324.50041-.65397.16188-1.80036.32314-1.46953v-.82324s-1.14639-2.1235-2.45434-1.80036l7.69385-.65398"/><path d="m721.5479 469.28999s-1.30795 2.45434.33114 3.10832c0 0 2.45434 2.93904 2.45434 3.60072h.4924.66168l.4844-.16188.49241-.16927h.81554l.65398.16927s1.46953-3.43915 3.43915-1.30796c0 0 2.45434 1.30796 4.09313-2.95443 1.63109-4.2547.16187-.32315.16187-.32315s2.1312-2.29276 2.29277 1.14639c0 0 1.47722 8.01699 5.07794 3.92386l.33053.66167.15387 22.58913s-2.1235-4.90867-4.90867-.97712l-.65398.32314-.4924.98482-.65398.16187-.65398.16927-.32314.49241-.65398.32314-.16926-.49241-.32314-.32314s-1.31565-.33053-.82324-1.63879c0 0-2.98522.7463-3.53917 3.3776-.0246.1231-.0431.25359-.0616.39269-.33053 2.93905-2.61591 1.6311-3.76229 1.6311l-.49241.32314-.97712.33114-.83093.65398s-2.77748 3.26988-2.1235 4.7471l-.16188.49241-.82324.33053-.81555.48502-.65398.16926-3.76998-3.93155-.81555-.16188h-.49241l-1.30795 1.96193s-2.29277 0-3.27758-1.30796h-.32314l-.49241.16188-.33114.16188s-1.63879.98481-3.43146-2.13119l-1.14638-.16188-.16926-.65398.4924.16926.49241-.16926.49241-.49241.32314-.65397.33052-.65398v-.48502l-.16926-.49979-.32314-.48502s3.60841-1.80806 5.23951 0c0 0 2.94674 1.95423 4.58553-3.43915l.32314-1.47722.49241-.49241.82324-2.77747v-1.96963s0-12.44095-.66167-13.7489l-.32314-1.47722.16187-5.88579s3.10832-2.29277 5.23951-1.63879"/><path d="m760.1787 518.07667-.32314 1.14638-.16127 1.30795v.81555s-.64628 3.60072-2.1235 3.76999c0 0-1.63879 2.94674.32314 3.43915 0 0 0 1.30795.98482.97711l.16926.81555-.16926.49979h-.49241l.33053.48502.33114.33115.48502.82324s-.16188 1.6234-.65398 1.95424l-.32314 1.14638 1.30026 2.13889.82324.15387 1.30796-1.96193.16926-1.14638.32314-.66167v-.64628l-.16187-1.14639v-.48502-1.32334-.65397l.48502-1.14639.16926-.48502v-.81555l.65398-1.14638.4924-.66167 1.14639-.97712.98481-.48502.16926-.82324.16188-.98481v-1.15408l-.33053-1.46952-.33114-.81555-.65398-.49241-1.47721-.97711h-.98482l-1.13869.16187-.5004-.32314-.98482.81555"/><path d="m769.18819 501.54259s8.51709 3.43146 3.11601 9.81735c0 0-2.1312 3.76229 1.46952 4.09313l.33053.4924-.33053.98481.16188 2.61591s-3.76229 3.60842-1.13869 4.42396v1.14639l.32314 2.29276s-1.46952 1.79267-.4924 2.44665v.82324l-.64628.82324s.16187 4.41627 2.1235.33114c0 0 .98481-3.1237 2.45433-2.13119 0 0 2.29277 0 1.96193 2.78517l.33053.81555h.66167.64629s.98481-3.10832 4.25469-2.95444c0 0 1.63879-.97712.66167-1.46953l.16188-.81554v-.65398s4.2547-3.76229 3.27758-5.07794l-.16926-.81555-.81555-1.15407s2.13119-5.23951 3.43145-3.76229c1.30796 1.47722.49241.16188.49241.16188l.33053 1.15407.82324 1.13869-.16927 2.1235.16927 1.64649.65398 2.45433-.49241 4.57784.33053 1.31565.97712 1.63879.16926 3.10831.65398-19.64239v-.98481l-.16927-1.63879v-1.14638l-.48502-.82324.48502-19.47313-.16188-1.80805.16188-.97712.16927-2.29276.64628-11.79467s2.78517-7.52458-7.85542-7.03217c0 0-12.93335-.33053-13.75659-.65398 0 0-4.90868-2.29277-4.74711 5.88579l1.14639 22.27368s-.16188 4.91637-1.14639 5.73192"/><path d="m791.61575 484.18528h-1.13869l-.65397.4924-.49241 1.13869-.16188.66167v1.31565l.16188.80785v1.31565s-.97712 5.23951-1.63879 5.40108l.32314.97712.66167.49241.16927.98481.16188.98481v.97712s-1.47722 9.33263 1.6234 8.67866c0 0 2.63129-2.45434.82324-9.81735l.16188-.98481.16926-.99251.16188-.48502.32314-2.29276.16927-.97712.82324-1.63879-.33053-1.30796-.16188-.98481-1.15407-4.7471"/><path d="m791.78502 512.50632c0 1.04637-.66167 1.885-1.47722 1.885-.80786 0-1.46183-.83863-1.46183-1.885 0-1.03867.65397-1.87729 1.46183-1.87729.81555 0 1.47722.83862 1.47722 1.87729"/><path d="m478.42237 66.555637 2.11581-.892486 6.21663-.561343 1.28487 1.20024 1.60032-.06955-.5158.299753-.30036.09233-.16927.123101-8.42476.261591-1.80805-.453629z"/><path d="m476.14499 228.14948s.25421 4.68555 5.05486 6.45513l-.11571.37731-6.58594-.63089-.25359-2.78518v-1.39258l.6309-2.27738v-.6309l.38469-.89248.88479 1.77728"/><path d="m492.20974 191.38828-1.76189 1.33104-.50779.50041-.38469.32314s-11.94085 7.78617-12.95644 9.64808c-.0554.0849-.0769.16188-.0769.22343.0696 1.32334 3.60842-7.59383 3.60842-7.59383l8.28627-3.80076 3.79306-.63089"/><path d="m476.71434 203.34452s-2.40048 2.33893-.70014 4.81635c0 0 .82324 1.32334.0689 5.1241 0 0-.5078 11.0022-.3847 11.70234l-.43824-.1231-.31575-5.3857-2.28508-10.17895 1.01559-5.0087 3.03907-.94634"/><path d="m505.49702 193.60411s.0616 1.26179 1.40028 2.59283l11.00989 11.26379 16.94954 16.13399s-.71553-1.93885-.13849-2.54666c.0369-.0431.0849-.0769.13849-.1151.82324-.44624-1.26179-6.132-1.26179-6.132l-16.07244-15.81854-12.02548-5.378"/><path d="m565.12432 204.2447s-4.32394-2.80056-4.57784-2.93905c-.26159-.1231-1.34642-.0769-1.34642-.0769h-1.59263l.0431 2.02348 2.58513 2.73132 4.02388 1.59262 1.63879-.1311-.77708-3.20064"/><path d="m413.60942 133.39207 7.10142.15388.33853.50779v1.01559l.50779 1.69265.84632.67706v1.01558l-.84632.5078-.50779.83863s-3.89309 2.03887-4.22393 2.8775c0 0 .50041 3.04676 5.40878 3.72382 0 0 2.53127 3.04676 5.75499.33853 0 0 4.22393-1.68496 5.40108 3.71612 0 0 .34592 1.52339 2.8775 2.3774 0 0 1.86191 2.18505 2.70824 1.34643.84632-.83863 0 .51579 0 .51579l.16926.83863.50041.33853 1.02328.85402.16926.66936.5078.33853s1.17716 4.22392 6.25509 1.18485h.84633l.83863-.17726h.85401s6.08584.85401 1.68496 4.40857c0 0-3.04677-1.35412-3.3776 3.88539 0 0-2.53897 4.22392-4.90098 4.57015 0 0-1.86961 1.00789-1.36181 5.57803l-.16927.84633v1.01558l-.33853.66937s-5.91656 4.06235-6.08583-2.36201v-1.17716-.84632s-1.69264-1.36181-1.51569-2.20044l-1.02328-.16927-1.00789.83863-.5078.5078s-4.23161 1.53107-5.91656-1.01559l-1.69265 1.35411.5078 1.86192v.84632l-.16927 9.80965s-1.01559 5.41647-5.58573-.50779l-.84632.50779-.5078.84632v.84633l-.16926 1.18485-2.8775-.16926.51579 1.85421v.68475l.66937 5.57035v1.53107l-.50041 7.77848-1.52338 5.41647-.16927 1.00789.16927 5.24721-.16927 2.53897-.16926 1.68495-.33853 1.36181 1.35412-2.20814.16188-3.03906s.34653-2.36971 2.71592-.5078c0 0 1.85422.5078 2.86981-1.35412 0 0 2.53897-2.8698 3.55456.5078 0 0 .33852 1.51569 1.18485 1.68495 0 0 2.36201.85402 2.02348-4.22392v-1.00789-1.19255s-1.17716-8.61711 6.42436-4.39319c0 0 2.8775.84633 4.06235-1.01558 0 0 3.88539-2.20044 6.43206 1.35411 0 0 4.90098 2.70824 7.94004-.16188l.5078-.34591h.84632l.5078.84632 3.04676 2.8775v.49979l-.5078.33853v1.02328s-3.39298 3.54687 1.52339 4.39319l.66936.16926s-.33853 1.35412.50779 1.35412c0 0 .33853 3.88539 1.86191 3.88539 0 0 2.53897-.66936.84633-4.57014l1.86191-3.3776s1.18485-8.28627.49979-8.79407l.68475-1.17715s.16927-7.44765 3.8854-6.77059c0 0 3.72382-.67706 2.53127 9.30186l.34653 1.35412v1.01559l.33853 8.117s3.71613 2.36971 2.70823 5.23951c0 0-.33853 1.53108.83863 2.20044l1.18486 1.86191s-1.18486-7.77848-.67706-8.97102l.50779-6.7552v-1.69264-1.52339l-1.01559-3.54686s3.21603-6.43205 10.82524-10.48671l4.90098-3.21603 2.36971-1.52338s10.31745-4.73941 12.34862 2.36971l.33053 1.35411 1.18485 1.34643.84632 1.19254s24.85882 24.52029 26.71304 25.69745l-.16188-1.17716.66936-.5078h.85402l.67706.16927.83863.50779.68475.66937 1.34642.84632-.83863.17727v.49979l.83863 1.02328.84633 1.17716.50779.84632v.68475l-.84632.33853 4.05465 4.05466s.16927-6.26279 6.42436-3.21603c0 0 7.27838 4.90868 7.44765-8.79406 0 0-.84633-10.48672 4.39318-3.04677 0 0 5.07794 7.95544 8.79407.67706l.50779-1.01559.67706-.66936s.33853-3.38529-.33853-3.72382c0 0 .33853-2.36971 2.03118-2.03118 0 0-8.6248-5.40877-8.79407-5.92426l-.50779 1.35412v.51579l-.33853.50041h-1.18485l-.5078-.33853-.67706-.67706-.83863-.83863-.50779-.16926h-.5158v-1.18485l-.33052-.5158-.67706-.50041v-.84632h.50779.67706.50779s-24.68955-20.97342-24.85881-26.72842l-.16927 1.36181-.68475 1.0079-1.00789-.16927-.33853-1.35412.17727-.66936.83862-.34653-3.72382-6.2551v1.18485l-.16126.84633-.68475.33053-.83863.16926-.68475-.16926s-3.55456-1.17716-3.55456-3.20834l1.19255-.16926s-1.18486-3.38529-2.53897-2.36971c0 0-2.19275-6.42436-4.73172-6.26279 0 0-2.53897-2.19274-1.69264-3.3776 0 0-1.52339-3.88539-3.71613 0 0 0-1.52338 5.07794-5.2472 4.40088 0 0-2.03118-3.03907-3.20834-2.03117 0 0-1.86191.33853-1.69264 3.21603 0 0-2.36971 7.94774-5.755-3.72383l-4.05466 2.53897-.67706.84633v.67706l1.01559.33852-.16926.66937v.85402s-6.08583 5.40877-4.90098-.34592l-4.73941 2.20044h-.83863l-.68475-.50779-.16927-.83863v-2.36971-.84632l-2.19274-.33853-1.18486-1.86191-2.03117 3.04676s-1.68495 3.03907-3.3776-1.52338v-.84632-.84632l-.17727-1.01559s.68476-4.06235-1.00789-5.07794c0 0-2.70823 1.86191-.67706 6.09353l.33853 1.52338v1.35411s-1.70034 7.27069-.84632 9.97123c0 0 0 7.44764-3.55456 7.27838 0 0-6.93215-1.35412-3.3776-13.36421l-.17726-.84633v-.83863l-.5078-1.19254s.5078-21.135 2.36971-24.18176l-.66937-1.34642v-3.05446l-.17726-2.53897s0-4.90098.84632-4.90098c0 0-1.51569-3.3776-2.3697-3.3776 0 0-.16127-4.73941.68475-4.57014v-.66937l-3.04677-4.7471s-.50779-5.23951-3.21602-2.36201l-.16927.67706-1.68495 2.02348s-1.86191 1.53108-1.36181 3.89309c0 0-1.17716 4.57014-4.56245.33853l-.50041-1.18486.16927-3.54686.5004-.34591-.16926-.66937-1.68495-1.35412-1.18486.33853-.50779.16927s-5.2472 2.02348-2.70823 4.73171l.16926 1.01559-.67706.33853s-2.19274 1.01559-1.69264 4.06235l-3.03907.67706s0-6.93216-4.57015-4.39319l.33853.66937-.33853.84632-.66936.33114-.50779.5158v1.35412s.16187 5.07024-.84633 5.23951l-.33853.84632-.50779 1.00789-.33853.5158h-2.03118v-1.01559l-.33852-.84632s-2.70054-4.57015-2.53897-11.5023l.16926-1.86191v-1.34643l.16927-1.52338.16926-1.35411.50779-3.72383s.34653-5.408769-.67705-5.916559c0 0-1.0079-3.21603.67705-7.439952v-1.184853l-.50779-1.86191.16926-3.046763.33853-1.015588s0-4.393186 1.35412-3.885392v-1.361811s4.22392-1.177158 3.21603 4.239309c0 0-.33853 1.515688.50779 2.531276 0 0-.84632 6.76289 3.54687 7.439949h.67705l.16927-.677059-.5078-.846323-.33852-.507794-.33853-.507794-.67706-2.031175-.5078-2.023481v-1.015588-.846323l3.55456-4.054657.84632-.169264s1.52339-2.546663 6.2551 3.046763l1.35412.330527s2.8698 1.354117 3.04676-2.877498l.50779-1.007894.33115-1.184852v-1.015588-1.354117-2.369704s.67706-4.054657 6.09352.177266l1.17716.838629.33853 1.015588s.67706 4.062351 1.69265 4.231615l1.01558-.684752s1.01559-1.515688.84633-3.716128l.67706-.338529h.50779l.67706-1.346423v-.854017-1.354117l.33053-.500407s-.16127-6.093526 1.52338-6.093526l-25.35892.169264-1.18485-.331143-1.35412-.854017-4.05465.169265-1.01559.338529-4.73941.177266-31.45244 1.0002-.16927 3.223722-.83863.677058-.85401 1.346423-.33853 1.015588.33853 1.869604s.17726 9.971224-.84633 10.140489l-.16187.507794v.846323 1.184852l-.5158 1.184852s-2.19275 2.531276-.83863 4.393186l-.33853 3.562252s0 3.3776 1.34642 4.046959c0 0 .34592 5.08563-.16926 5.2549 0 0 3.04676 8.79406 9.64039 8.6248 0 0 3.38529-.50779 1.02328-8.46323v-.84632-2.03118s-.34592-10.817545 3.54686-10.317445c0 0 6.59363-1.354117 3.88539 9.648085l.33853 1.00789.84633.84632.50779.5078 2.20044 2.20044 1.01559.16926h.67706l1.68495-1.18485.33853-1.35412v-1.18485l.16926-.84632.33853-.67706.34592-.83863.16926-.5158.50041-.50779 1.35412-.669359h1.01558l.67706.16187 1.01559.34592.33853.669359.33853.68476.33853 1.52338v1.68495l-.33853 1.36181-.33853 1.51569s.84632 12.34862-.17727 13.53347l-3.37759-.16926-.16927-.85402s-2.20044-1.34642-2.20044-2.19274c0 0-2.36201-.17727-2.19275 2.87749 0 0-.68475 1.51569 1.17716 1.34643v2.53897l-1.00789 1.52338h-3.04676l-.5078-.33853s-.67706 3.20833.33853 5.41647"/><path d="m412.7554 125.36739s-.86171 3.09293.29237 5.53957c1.16177 2.43895.18465-.90787.18465-.90787l-.0769-3.85462s-.35392-.50041-.40008-.77708"/><path d="m422.71893 137.74679c0 .47702-.40808.86171-.90787.86171-.50041 0-.90788-.38469-.90788-.86171s.40747-.85402.90788-.85402c.5004 0 .90787.37669.90787.85402"/></g></svg>