<svg fill="none" height="33" viewBox="0 0 50 33" width="50" xmlns="http://www.w3.org/2000/svg"><path d="m2.536 9c-.832 0-1.248-.316-1.248-.948v-1.44h2.496v.456c0 .016.008.024.024.024h.564c.016 0 .024-.008.024-.024v-.912c0-.016-.008-.024-.024-.024h-1.836c-.832 0-1.248-.324-1.248-.972v-2.856c0-.648.416-.972 1.248-.972h3.108c.832 0 1.248.324 1.248.972v1.416h-2.496v-.444c0-.016-.008-.024-.024-.024h-.564c-.016 0-.024.008-.024.024v.912c0 .016.008.024.024.024h1.836c.832 0 1.248.316 1.248.948v2.892c0 .632-.416.948-1.248.948z" fill="#000"/><path d="m10.5718 5.892h-.58802c-.016 0-.024.008-.024.024v1.152c0 .016.008.024.024.024h.58802zm-1.86002 3.108c-.832 0-1.248-.316-1.248-.948v-2.892c0-.632.416-.948 1.248-.948h1.86002v-.936c0-.016-.008-.024-.024-.024h-.56402c-.016 0-.024.008-.024.024v.444h-2.496v-1.416c0-.648.416-.972 1.248-.972h3.10802c.832 0 1.248.324 1.248.972v6.696z" fill="#000"/><path d="m16.7833 9v-5.724c0-.016-.008-.024-.024-.024h-.564c-.016 0-.024.008-.024.024v5.724h-2.496v-7.668h2.496v.492c.424-.328 1.044-.492 1.86-.492.832 0 1.248.324 1.248.972v6.696z" fill="#000"/><path clip-rule="evenodd" d="m1.37802 5.612c.16344.34667.54943.52 1.15798.52h1.836c.016 0 .024.008.024.024v.912c0 .016-.008.024-.024.024h-.564c-.016 0-.024-.008-.024-.024v-.456h-2.496v1.44c0 .632.416.948 1.248.948h3.108c.41803 0 .73105-.07977.93904-.23932.20597-.158.30896-.39422.30896-.70868v-2.892c0-.16936-.02987-.31602-.08962-.44-.05119-.10621-.1243-.19577-.21934-.26867-.03651-.02802-.07627-.05357-.11926-.07666-.20188-.10845-.47514-.16267-.81978-.16267h-1.836c-.016 0-.024-.008-.024-.024v-.912c0-.016.008-.024.024-.024h.564c.016 0 .024.008.024.024v.444h2.496v-1.416c0-.32116-.10218-.56273-.30655-.72472-.20798-.16485-.5218-.24728-.94145-.24728h-3.108c-.832 0-1.248.324-1.248.972v2.856c0 .17404.03001.32471.09002.452zm5.79987-4.838701c-.45661-.347379-1.02185-.441298-1.53389-.441298h-3.108c-.51826 0-1.09101.096213-1.550468.454056-.506954.394843-.697534.963793-.697534 1.517943v2.856c0 .15084.014121.30278.044899.452h-.044899v2.44c0 .55525.197061 1.11987.707111 1.50731.458131.34801 1.026721.44069 1.540891.44069h3.108c.51156 0 1.07697-.09174 1.53389-.4354.45692.34366 1.02233.4354 1.53389.4354h11.56752v-7.696c0-.55415-.1906-1.1231-.6976-1.517943-.4594-.357843-1.0322-.454056-1.5504-.454056-.2936 0-.5819.018326-.86.059798v-.059798h-4.496v.108685c-.2836-.080978-.5774-.108685-.8555-.108685h-3.10802c-.51205 0-1.07729.093919-1.53389.441298zm.59244.805981c-.20437.16199-.30655.40356-.30655.72472v1.416h2.496v-.444c0-.016.008-.024.024-.024h.56402c.016 0 .024.008.024.024v.936h-1.86002c-.34464 0-.6179.05422-.81978.16267-.04299.02309-.08275.04864-.11927.07666-.09503.0729-.16815.16246-.21933.26867-.05975.12398-.08962.27064-.08962.44v2.892c0 .31446.10298.55068.30895.70868.208.15955.52101.23932.93905.23932h4.35602v-6.696c0-.3634-.1309-.6249-.3925-.78451-.2049-.12499-.4901-.18749-.8555-.18749h-3.10802c-.41965 0-.73347.08243-.94145.24728zm5.90497-.24728v7.668h2.496v-5.724c0-.016.008-.024.024-.024h.564c.016 0 .024.008.024.024v5.724h2.496v-6.696c0-.648-.416-.972-1.248-.972-.3161 0-.6028.02461-.86.07382-.4069.07784-.7403.21723-1 .41818v-.492zm-3.1035 5.76h-.58802c-.016 0-.024-.008-.024-.024v-1.152c0-.016.008-.024.024-.024h.58802z" fill="#fff" fill-rule="evenodd"/><g fill="#000"><path d="m8.408 12.276c0-.016-.008-.024-.024-.024h-.564c-.016 0-.024.008-.024.024v.936h.612zm1.248 8.112c-.832 0-1.248-.316-1.248-.948v-4.308h-.612v2.868h-2.496v-6.696c0-.648.416-.972 1.248-.972h3.108c.832 0 1.248.324 1.248.972v7.152c0 .016.008.024.024.024h6.192v1.908zm4.968-2.388v-5.724c0-.016-.008-.024-.024-.024h-.564c-.016 0-.024.008-.024.024v5.724h-2.496v-7.668h2.496v.492c.424-.328 1.044-.492 1.86-.492.832 0 1.248.324 1.248.972v6.696z"/><path d="m18.9579 18c-.432 0-.748-.076-.948-.228-.2-.16-.3-.4-.3-.72v-5.748c0-.648.416-.972 1.248-.972h1.86v-1.92h2.496v9.588zm1.86-5.748h-.588c-.016 0-.024.008-.024.024v3.792c0 .016.008.024.024.024h.588z"/><path d="m28.2891 20.388c-.832 0-1.248-.316-1.248-.948v-4.488c0-.016-.008-.024-.024-.024h-.588v3.072h-2.496v-7.668h4.356c.824 0 1.236.324 1.236.972v2.232c0 .368-.204.576-.612.624.416.056.624.268.624.636v3.66c0 .016.008.024.024.024h6.168v1.908zm-1.248-8.112c0-.016-.008-.024-.024-.024h-.588v1.152h.588c.016 0 .024-.008.024-.024zm6.192 0c0-.016-.008-.024-.024-.024h-.564c-.016 0-.024.008-.024.024v1.068h.612zm-1.86 5.724c-.832 0-1.248-.316-1.248-.948v-5.748c0-.648.416-.972 1.248-.972h3.108c.832 0 1.248.324 1.248.972v3.828h-3.108v.936c0 .016.008.024.024.024h.564c.016 0 .024-.008.024-.024v-.456h2.496v1.44c0 .632-.416.948-1.248.948z"/><path d="m39.4155 14.892h-.588c-.016 0-.024.008-.024.024v1.152c0 .016.008.024.024.024h.588zm-1.86 3.108c-.832 0-1.248-.316-1.248-.948v-2.892c0-.632.416-.948 1.248-.948h1.86v-.936c0-.016-.008-.024-.024-.024h-.564c-.016 0-.024.008-.024.024v.444h-2.496v-1.416c0-.648.416-.972 1.248-.972h3.108c.832 0 1.248.324 1.248.972v6.696z"/><path d="m43.743 18c-.832 0-1.248-.316-1.248-.948v-1.44h2.496v.456c0 .016.008.024.024.024h.564c.016 0 .024-.008.024-.024v-.912c0-.016-.008-.024-.024-.024h-1.836c-.832 0-1.248-.324-1.248-.972v-2.856c0-.648.416-.972 1.248-.972h3.108c.832 0 1.248.324 1.248.972v1.416h-2.496v-.444c0-.016-.008-.024-.024-.024h-.564c-.016 0-.024.008-.024.024v.912c0 .016.008.024.024.024h1.836c.832 0 1.248.316 1.248.948v2.892c0 .632-.416.948-1.248.948z"/></g><path clip-rule="evenodd" d="m5.3 18v-6.696c0-.648.416-.972 1.248-.972h3.108c.3681 0 .6548.0634.86.1903.2587.1598.388.4204.388.7817v7.152c0 .016.008.024.024.024h6.192v1.908h-7.464c-.832 0-1.248-.316-1.248-.948v-4.308h-.612v2.868zm2.108 1h-3.108v-7.696c0-.5541.19058-1.1231.69753-1.51794.45946-.35784 1.03221-.45406 1.55047-.45406h3.108c.27959 0 .575.028.86.10998v-.10998h4.496v.0598c.2781-.04147.5664-.0598.86-.0598.5154 0 1.0848.09517 1.5429.44823.4582-.35306 1.0275-.44823 1.543-.44823h.86v-1.92h4.496v1.92h3.9752c.513 0 1.0809.09577 1.5375.45097.4588-.35531 1.0297-.45097 1.5465-.45097h3.108c.5133 0 1.08.09438 1.5372.44384.4572-.34946 1.0239-.44384 1.5372-.44384h3.108c.5143 0 1.0822.09473 1.5398.44578.4576-.35105 1.0255-.44578 1.5397-.44578h3.108c.5183 0 1.091.09622 1.5505.45406.507.39484.6975.96384.6975 1.51794v2.416h-.0437c.0299.145.0437.2928.0437.44v2.892c0 .5553-.197 1.1199-.7071 1.5073-.4581.348-1.0267.4407-1.5409.4407h-3.108c-.2701 0-.5552-.0256-.8315-.1003v.1003h-5.356c-.2684 0-.5517-.0253-.8264-.099v2.487h-8.44c-.5142 0-1.0828-.0927-1.5409-.4407-.51-.3874-.7071-.952-.7071-1.5073v-.44h-7.0832c-.2683 0-.5572-.0228-.8379-.0955v2.4835h-8.464c-.51417 0-1.08276-.0927-1.54089-.4407-.51005-.3874-.70711-.952-.70711-1.5073zm9.712-1v-6.696c0-.3137-.0975-.5515-.2925-.7133-.2078-.1725-.5263-.2587-.9555-.2587-.3161 0-.6027.0246-.86.0738-.4069.0779-.7402.2173-1 .4182v-.492h-2.496v7.668h2.496v-5.724c0-.016.008-.024.024-.024h.564c.016 0 .024.008.024.024v5.724zm.6683-.52c.0499.1165.1238.2138.2216.292.0334.0254.0701.0487.1101.0699.1989.1054.4782.1581.8379.1581h4.356v-9.588h-2.496v1.92h-1.86c-.4292 0-.7477.0862-.9555.2587-.195.1618-.2925.3996-.2925.7133v5.748c0 .1636.0261.3062.0784.428zm8.6408.52v-3.072h.588c.016 0 .024.008.024.024v4.488c0 .632.416.948 1.248.948h7.44v-1.908h-6.168c-.016 0-.024-.008-.024-.024v-3.66c0-.299-.1373-.495-.412-.5881-.0634-.0214-.134-.0374-.212-.0479.0781-.0092.1488-.0243.212-.0452.2667-.0884.4-.2813.4-.5788v-2.232c0-.3107-.0947-.5469-.2841-.7086-.2056-.1756-.5229-.2634-.9519-.2634h-4.356v7.668zm3.696-.948c0 .1639.028.3066.084.428.068.1475.1773.2637.328.3484.2034.1144.482.1716.836.1716h3.108c.4215 0 .7363-.0811.9442-.2434.0961-.0749.1693-.1671.2198-.2766.056-.1214.084-.2641.084-.428v-1.44h-2.496v.456c0 .016-.008.024-.024.024h-.564c-.016 0-.024-.008-.024-.024v-.936h3.108v-3.828c0-.3184-.1005-.5586-.3014-.7206-.2079-.1676-.5235-.2514-.9466-.2514h-3.108c-.4343 0-.7552.0883-.9628.2649-.1901.1616-.2852.3974-.2852.7071zm6.1824-4.332h2.496v-.444c0-.016.008-.024.024-.024h.564c.016 0 .024.008.024.024v.936h-1.86c-.3484 0-.6239.0554-.8264.1663-.1515.0829-.2621.1968-.332.3417-.0597.124-.0896.2706-.0896.44v2.892c0 .1639.028.3066.084.428.0505.1095.1238.2017.2198.2766.036.0282.0753.0539.1178.0771.2025.1109.478.1663.8264.1663h4.356v-6.696c0-.3164-.0991-.5555-.2974-.7174-.2079-.1697-.5248-.2546-.9506-.2546h-3.108c-.4231 0-.7386.0838-.9466.2514-.2009.162-.3014.4022-.3014.7206zm6.2776 1.892c.069.1465.1779.2621.3264.3467.203.1155.4802.1733.8315.1733h1.836c.016 0 .024.008.024.024v.912c0 .016-.008.024-.024.024h-.564c-.016 0-.024-.008-.024-.024v-.456h-2.496v1.44c0 .3651.1389.6248.4165.7789.203.1127.4802.1691.8315.1691h3.108c.832 0 1.248-.316 1.248-.948v-2.892c0-.1694-.0298-.316-.0896-.44-.1632-.3387-.5493-.508-1.1584-.508h-1.836c-.016 0-.024-.008-.024-.024v-.912c0-.016.008-.024.024-.024h.564c.016 0 .024.008.024.024v.444h2.496v-1.416c0-.648-.416-.972-1.248-.972h-3.108c-.4258 0-.7426.0849-.9505.2546-.1983.1619-.2975.401-.2975.7174v2.856c0 .174.03.3247.0901.452zm-34.1771-1.4v-.936c0-.016-.008-.024-.024-.024h-.564c-.016 0-.024.008-.024.024v.936zm12.4099 2.88h-.588c-.016 0-.024-.008-.024-.024v-3.792c0-.016.008-.024.024-.024h.588zm12.4152-2.748h-.612v-1.068c0-.016.008-.024.024-.024h.564c.016 0 .024.008.024.024zm6.1824 2.748h-.588c-.016 0-.024-.008-.024-.024v-1.152c0-.016.008-.024.024-.024h.588zm-12.3984-3.84c.016 0 .024.008.024.024v1.104c0 .016-.008.024-.024.024h-.588v-1.152z" fill="#fff" fill-rule="evenodd"/><path d="m25.668 31.688c-.832 0-1.248-.316-1.248-.948v-4.488c0-.016-.008-.024-.024-.024h-.588v3.072h-2.496v-7.668h4.356c.824 0 1.236.324 1.236.972v2.232c0 .368-.204.576-.612.624.416.056.624.268.624.636v3.66c0 .016.008.024.024.024h6.168v1.908zm-1.248-8.112c0-.016-.008-.024-.024-.024h-.588v1.152h.588c.016 0 .024-.008.024-.024zm6.192 2.616h-.588c-.016 0-.024.008-.024.024v1.152c0 .016.008.024.024.024h.588zm-1.86 3.108c-.832 0-1.248-.316-1.248-.948v-2.892c0-.632.416-.948 1.248-.948h1.86v-.936c0-.016-.008-.024-.024-.024h-.564c-.016 0-.024.008-.024.024v.444h-2.496v-1.416c0-.648.416-.972 1.248-.972h3.108c.832 0 1.248.324 1.248.972v6.696z" fill="#000"/><path d="m34.9462 29.3c-.432 0-.748-.076-.948-.228-.2-.16-.3-.4-.3-.72v-5.748c0-.648.416-.972 1.248-.972h1.86v-1.92h2.496v9.588zm1.86-5.748h-.588c-.016 0-.024.008-.024.024v3.792c0 .016.008.024.024.024h.588z" fill="#000"/><path d="m39.9214 29.3v-7.668h2.496v7.668z" fill="#000"/><path d="m46.1226 23.576c0-.016-.008-.024-.024-.024h-.564c-.016 0-.024.008-.024.024v3.792c0 .016.008.024.024.024h.564c.016 0 .024-.008.024-.024zm-1.86 5.724c-.832 0-1.248-.316-1.248-.948v-5.748c0-.648.416-.972 1.248-.972h3.108c.832 0 1.248.324 1.248.972v5.748c0 .632-.416.948-1.248.948z" fill="#000"/><path clip-rule="evenodd" d="m33.108 29.78v1.908h-7.44c-.832 0-1.248-.316-1.248-.948v-4.488c0-.016-.008-.024-.024-.024h-.588v3.072h-2.496v-7.668h4.356c.429 0 .7463.0878.9519.2634.1894.1617.2841.3979.2841.7086v2.232c0 .0666-.0067.1279-.02.184-.0463.1945-.1728.326-.3796.3947-.0633.021-.1341.0361-.2124.0453.078.0105.1486.0265.212.0479.2747.0931.412.2891.412.5881v3.66c0 .016.008.024.024.024zm-5.604-1.428c0 .1639.028.3066.084.428.068.1475.1773.2637.328.3484.2034.1144.482.1716.836.1716h4.356v-6.696c0-.3136-.0974-.5513-.2923-.7132-.2078-.1725-.5264-.2588-.9557-.2588h-3.108c-.4343 0-.7552.0883-.9628.2648-.1901.1617-.2852.3975-.2852.7072v1.416h2.496v-.444c0-.016.008-.024.024-.024h.564c.016 0 .024.008.024.024v.936h-1.86c-.361 0-.6436.0595-.848.1785-.071.0413-.1326.0898-.1847.1455-.0509.0545-.0928.1158-.1257.184-.0079.0164-.0152.0331-.0221.0503-.045.1128-.0675.2427-.0675.3897zm-.2985-7.269c-.4566-.3552-1.0245-.451-1.5375-.451h-5.356v9.668h3.108v.44c0 .5553.1971 1.1199.7071 1.5073.4581.348 1.0267.4407 1.5409.4407h8.44v-2.4835c.2808.0727.5698.0955.8382.0955h8.4712v-.1041c.2805.0777.5706.1041.8452.1041h3.108c.5141 0 1.0827-.0927 1.5408-.4407.5101-.3874.7072-.952.7072-1.5073v-5.748c0-.5541-.1906-1.1231-.6976-1.5179-.4594-.3579-1.0322-.4541-1.5504-.4541h-3.108c-.2748 0-.5648.027-.8452.1058v-.1058h-3.1152v-1.92h-4.496v1.92h-.86c-.5155 0-1.0849.0952-1.5431.4483-.4582-.3531-1.0276-.4483-1.5431-.4483h-3.108c-.5168 0-1.0877.0957-1.5465.451zm6.785.8078c-.1949.1619-.2923.3996-.2923.7132v5.748c0 .1636.0261.3062.0783.428.05.1165.1239.2138.2217.292.0333.0254.07.0486.1098.0698.1989.1055.4783.1582.8382.1582h4.356v-9.588h-2.496v1.92h-1.86c-.4294 0-.7479.0863-.9557.2588zm5.9309-.2588v7.668h2.496v-7.668zm3.496.1813c-.2686.159-.4028.4226-.4028.7907v5.748c0 .3591.1342.6161.4028.7712.2041.1179.4858.1768.8452.1768h3.108c.832 0 1.248-.316 1.248-.948v-5.748c0-.648-.416-.972-1.248-.972h-3.108c-.3594 0-.6411.0604-.8452.1813zm-12.8054 5.5787h-.588c-.016 0-.024-.008-.024-.024v-1.152c0-.016.008-.024.024-.024h.588zm6.1942 0h-.588c-.016 0-.024-.008-.024-.024v-3.792c0-.016.008-.024.024-.024h.588zm9.3164-3.816c0-.016-.008-.024-.024-.024h-.564c-.016 0-.024.008-.024.024v3.792c0 .016.008.024.024.024h.564c.016 0 .024-.008.024-.024zm-21.7266-.024c.016 0 .024.008.024.024v1.104c0 .016-.008.024-.024.024h-.588v-1.152z" fill="#fff" fill-rule="evenodd"/></svg>